<?xml version="1.0" standalone="no"?>
<!DOCTYPE svg PUBLIC "-//W3C//DTD SVG 1.1//EN" "http://www.w3.org/Graphics/SVG/1.1/DTD/svg11.dtd" >
<svg>
<metadata>
Created by FontForge 20090914 at Fri Feb 24 01:58:54 2012
 By root
Copyright 2009 Davy Meykens, created using www.fontcapture.com
</metadata>
<defs>
<font id="ParentsSuck" horiz-adv-x="30" >
  <font-face 
    font-family="Parents Suck"
    font-weight="500"
    font-stretch="normal"
    units-per-em="2048"
    panose-1="2 0 6 3 0 0 0 0 0 0"
    ascent="1317"
    descent="-731"
    x-height="1322"
    cap-height="1377"
    bbox="29.0769 -870 1232.52 1567"
    underline-thickness="50"
    underline-position="-100"
    unicode-range="U+0020-U+20AC"
  />
<missing-glyph horiz-adv-x="748" 
d="M68 0v1317h544v-1317h-544zM136 68h408v1181h-408v-1181z" />
    <glyph glyph-name=".notdef" horiz-adv-x="748" 
d="M68 0v1317h544v-1317h-544zM136 68h408v1181h-408v-1181z" />
    <glyph glyph-name=".null" horiz-adv-x="0" 
 />
    <glyph glyph-name="nonmarkingreturn" horiz-adv-x="682" 
 />
    <glyph glyph-name="space" unicode=" " horiz-adv-x="500" 
 />
    <glyph glyph-name="exclam" unicode="!" horiz-adv-x="497" 
d="M196 422q21 6 93 7q68 1 88 -17t20 -80q0 -21 -1 -34.5t-4 -26t-9 -18t-15 -11.5t-23 -6t-32.5 -2t-43.5 1q-51 2 -69.5 4.5t-27.5 8.5t-17 22q-14 31 -6 88q7 34 17 31q4 -3 7 0.5t3 10.5t6 13.5t14 8.5zM234 1304q44 8 85 0t57 -27q13 -16 16.5 -53t2.5 -154
q-1 -182 -14 -402q-5 -80 -8 -119t-7 -64.5t-7.5 -31t-11.5 -5.5q-20 2 -94 3q-54 2 -66 7t-21 32q-13 36 -13 168v132l-38 -3q-38 -3 -46.5 -14.5t-8.5 0.5q0 17 19 29t37 6q22 -7 22 11q0 7 -8 14t-19 10q-23 6 -26.5 15.5t13.5 16.5q10 4 -1 4h-7q-23 -2 -27 18t14 20
t18 -13t21.5 6t35.5 19q12 0 12 10q0 11 -15 16q-8 3 -8 7.5t8 12.5q14 15 7 164l-7 149l28 5q28 6 57 11zM304 630q0 19 -12 26.5t-11 -3.5q1 -9 11 -26q8 -11 10 -11t2 14z" />
    <glyph glyph-name="quotedbl" unicode="&#x22;" horiz-adv-x="130" 
 />
    <glyph glyph-name="numbersign" unicode="#" horiz-adv-x="130" 
 />
    <glyph glyph-name="dollar" unicode="$" 
 />
    <glyph glyph-name="percent" unicode="%" 
 />
    <glyph glyph-name="ampersand" unicode="&#x26;" 
 />
    <glyph glyph-name="quotesingle" unicode="'" horiz-adv-x="130" 
 />
    <glyph glyph-name="parenleft" unicode="(" 
 />
    <glyph glyph-name="parenright" unicode=")" 
 />
    <glyph glyph-name="asterisk" unicode="*" 
 />
    <glyph glyph-name="plus" unicode="+" horiz-adv-x="130" 
 />
    <glyph glyph-name="comma" unicode="," horiz-adv-x="404" 
d="M124 421q36 9 95.5 7t70.5 -12q14 -14 14 -82q0 -94 -39 -169.5t-94 -89.5q-25 -5 -37.5 -1.5t-6 15t29.5 20.5q30 13 36 23t6 46v51l-50 -1q-52 -1 -70.5 17.5t-18.5 72.5q0 48 14.5 71.5t49.5 31.5z" />
    <glyph glyph-name="hyphen" unicode="-" horiz-adv-x="603" 
d="M88 867q17 9 58 10.5t134 -2.5q162 -8 188 -17t34 -50.5t-12 -61.5q-13 -13 -52 -17.5t-157 -6.5q-157 -3 -187 7q-28 9 -32 42q-2 10 -2 34q0 29 5 41t23 21zM483 827q0 9 -5.5 15t-13.5 6q-11 0 -12 -5q0 -2 3 -4q10 -9 19 -20q8 -6 9 8zM201 818q4 3 -5 5q-5 1 -10 0
q-12 0 -13 -3q0 -1 6 -4q15 -5 22 2z" />
    <glyph glyph-name="period" unicode="." horiz-adv-x="401" 
d="M113 433.5q23 5.5 95 6.5q45 1 60.5 -3t22.5 -18q13 -23 12.5 -85.5t-13.5 -75.5q-14 -14 -108 -14t-108 14q-14 15 -14 77.5t15 76.5q15 16 38 21.5z" />
    <glyph glyph-name="slash" unicode="/" horiz-adv-x="130" 
 />
    <glyph glyph-name="zero" unicode="0" horiz-adv-x="615" 
d="M270 1321q52 8 106.5 3t85.5 -20q34 -18 63.5 -60.5t41.5 -91.5q14 -61 17 -397t-11 -370q-5 -14 -24.5 -33.5t-41.5 -33.5q-37 -24 -63 -28.5t-114 -4.5t-112.5 4.5t-56.5 28.5q-64 46 -92 96.5t-29 120.5q0 43 14 59.5t51 16.5q29 0 40 13.5t11 50.5q0 27 -7 46
q-6 16 -31.5 18t-40.5 -14q-9 -9 -14 -8.5t-11 9.5q-14 23 -19.5 102.5t0.5 170.5q7 104 18 153t34 78q22 28 78.5 56t106.5 35zM349 1131q-5 20 -19 26.5t-26 -5.5q-8 -8 -8 -351q0 -301 8 -329q3 -12 12 -10q14 2 16.5 21.5t0.5 92.5q-4 111 10 318.5t6 236.5zM153 492
q5 15 -2 22q-3 4 -5 -5q-1 -4 0 -10q0 -12 3 -13q1 0 4 6z" />
    <glyph glyph-name="one" unicode="1" horiz-adv-x="400" 
d="M174 1243q4 13 20 15t72 -2q85 -7 96 -18q10 -9 8 -453.5t-12 -505.5q-5 -35 -13.5 -41.5t-49.5 -8.5l-55 -4l6 -66q6 -67 12 -97q8 -40 9.5 -188.5t-5.5 -169.5q-8 -22 -25 -25t-24 15t4 86q11 64 9.5 149t-14.5 157q-8 49 -15 63t-24 17q-12 1 -19.5 -2t-8.5 -10
q-7 -86 -20 -112q-10 -20 -1 -109t11.5 -355.5t14 -288t-0.5 -33.5t-2 -55q11 -46 9 -58.5t-20 -12.5q-15 0 -21 36q-10 60 -20 483q-8 315 -10.5 383t6.5 73q13 9 8 46.5t-22 59.5q-24 30 -24 53q0 15 8 28t36 44q15 16 18 323q2 268 -5 294q-3 13 -16 14q-21 1 -28 1
t-17 4.5t-11.5 6.5t-4.5 14.5t-3 21v33.5q0 48 4 64t16 19q59 19 83.5 40.5t40.5 71.5zM355 1151q2 80 -6 79q-2 -1 -6 -9q-4 -9 3 -79l7 -70zM236 1180q6 14 0 29q-3 9 -5 -4v-11q0 -19 3 -18q1 0 2 4zM287 1205.5q0 11.5 -13 11.5q-5 0 -6.5 -3t1.5 -8q7 -12 12.5 -12
t5.5 11.5zM236 970q5 26 0 46q-3 11 -4 -3q-1 -9 -1 -23q1 -29 3 -27q1 0 2 7zM163 974q-7 12 -17.5 9.5t-10.5 -16.5q0 -17 17 -10q7 2 10.5 7t0.5 10zM330 678q6 15 0 29q-4 10 -6 -3v-11q0 -19 3 -18q1 0 3 3zM143 427q5 44 0 88q-2 23 -4 -3q-1 -15 -1 -41q0 -57 3 -54
q1 2 2 10zM345 278q0 28 -5 29q-4 0 -10 -22q-6 -24 4 -30q6 -4 9 8q2 6 2 15z" />
    <glyph glyph-name="two" unicode="2" horiz-adv-x="824" 
d="M306 1274q44 24 114 24.5t114 -21.5q42 -21 78 -16t43 -13q3 -8 8 -11.5t9.5 -1t7.5 0.5t3 -7q0 -18 23 -10q15 6 29 22q21 23 12 23q-8 2 2 13q14 13 32 5.5t11 -24.5q-2 -7 -9 -12t-13 -5q-16 0 -9.5 -17.5t-22.5 -28.5q-24 -9 -34.5 -27t2.5 -26q12 -7 12 -19t-11 -5
q-5 2 -6 -11q-2 -15 1 -45q21 -196 -159 -412q-59 -71 -141.5 -142.5t-102.5 -68.5q-16 3 -19 -12q-1 -7 0 -8l3 3q4 8 127 -14.5t142 -34.5q14 -8 14 -52.5t-14 -63.5q-11 -15 -34 -14q-26 0 -162 22q-180 30 -233 38q-56 9 -74.5 21.5t-18.5 41.5q0 89 116 207
q72 73 82.5 73t13.5 -24l4 -25l29 25q20 16 21.5 22t-12.5 14q-21 12 -9 36.5t70 85.5q37 39 56.5 69t29.5 65q27 88 17 125q-3 13 -11 8q-14 -8 -6 13t0.5 42.5t-22.5 21.5q-27 0 -40 -36t-7 -92l8 -71l-44 8q-91 16 -121 27.5t-33 31.5q-4 31 17.5 105.5t45.5 110.5
q11 18 32.5 37.5t38.5 28.5zM411 1175q4 4 -5 6q-4 1 -10 0q-22 -1 -7 -7t22 1zM353 959q6 15 -1 22q-4 4 -6 -6v-9q1 -13 3 -13q2 -1 4 6zM618 1334q10 16 26 11.5t16 -23.5q0 -9 -5.5 -16t-12.5 -7q-16 0 -23.5 11.5t-0.5 23.5z" />
    <glyph glyph-name="three" unicode="3" horiz-adv-x="584" 
d="M192 1271q70 19 129.5 12t94.5 -37q16 -15 16 -21t-17 -24q-24 -26 -30 -56t11 -43q19 -16 42 -5.5t33 40.5q19 55 38 21q22 -41 22 -164q0 -83 -9.5 -115.5t-44.5 -70.5l-29 -30l31 -8q39 -10 57 -53.5t18 -128.5q0 -122 -33.5 -205.5t-94.5 -115.5q-30 -15 -114 -17
t-134 12q-48 13 -86 50t-51 83q-15 53 -4 161l10 108l99 3q85 3 88 -3q1 -4 -10 -16q-19 -20 -20 -59q0 -21 8 -20q2 0 4 1q12 7 12 42q0 30 9 29q1 0 2 -1q5 -3 8.5 -32t3.5 -67q0 -76 6 -102t24 -26q19 0 29.5 36.5t10.5 103.5q0 72 -13.5 105.5t-52.5 56.5q-22 13 -31 26
t-10 33q-1 35 -3 50q0 6 13.5 17t32.5 21l47 24l3 87q4 87 -14 110q-10 14 -16.5 16t-14.5 -6q-10 -10 -14 -40t-7 -112l-2 -38h-97h-3q-26 0 -37 -0.5t-26.5 2.5t-20 4t-12 10.5t-8.5 15t-3 24t-2 31.5v43v4q0 105 36.5 157.5t125.5 76.5zM481 1017q6 15 -1 22q-4 4 -6 -5
v-10q1 -12 3 -13q2 0 4 6zM157.5 412.5q0.5 17.5 -10.5 35.5q-11 17 -11 5q1 -11 11 -34.5t10.5 -6zM283 313q4 3 -6 5q-4 1 -10 0q-12 0 -12 -3q-1 -1 5 -4q16 -5 23 2z" />
    <glyph glyph-name="four" unicode="4" horiz-adv-x="717" 
d="M324 1279q53 4 139 6h2q18 0 26.5 0.5t21 -1t17 -2t12.5 -6.5t10 -8.5t7 -15t5.5 -19.5t3 -27.5t3.5 -33.5t3 -43v-4q3 -40 3 -61.5t-2 -39t-10.5 -26t-19.5 -14.5t-33 -12q-32 -8 -47 -25t-6 -33q7 -10 54 -25q19 -6 36 -16.5t22 -19.5q12 -22 4 -164l-7 -143l42 5
q45 5 61 -13.5t16 -79.5q0 -43 -4.5 -57.5t-20.5 -23.5q-24 -13 -58 -8q-24 4 -29 -2t-5 -37v-33.5t-5 -22t-10 -14.5t-21.5 -6.5t-32 -3.5h-49.5q-52 0 -72 1.5t-28.5 6.5t-13.5 18q-9 26 -4 69l5 42l-154 -6l-155 -7l6 98q4 71 27.5 159.5t99.5 321.5q34 102 51.5 174.5
t36.5 109.5q13 25 25.5 32t47.5 10zM278 902.5q0 11.5 -5 11.5t-12 -11q-3 -5 -1.5 -8.5t6.5 -3.5q12 0 12 11.5zM324.5 569q13.5 16 9.5 125l-3 109l-31 -105q-31 -104 -39 -125q-5 -12 -1 -16t22 -4q29 0 42.5 16z" />
    <glyph glyph-name="five" unicode="5" horiz-adv-x="650" 
d="M241 1277q166 26 223.5 30.5t61.5 -9.5q6 -17 -2 -78.5t-17 -70.5q-12 -12 -110 -23q-34 -4 -53 -7t-35.5 -9.5t-23 -12.5t-11 -19.5t-3.5 -28.5t4 -40q2 -24 4.5 -37t5.5 -21t7 -8t10 2q18 8 47 9q19 1 25 -6t8 -31q3 -31 16.5 -36t39.5 15q22 17 61 18q25 0 35.5 -8.5
t25.5 -42.5q26 -58 46.5 -206.5t10.5 -203t-39.5 -99t-73.5 -71.5q-29 -18 -55.5 -23t-99.5 -5q-69 0 -99 5t-61 22q-20 10 -39.5 27.5t-26.5 31.5q-18 35 -30.5 113t-9.5 140l4 68l58 16q59 15 101 15q38 0 51.5 -26.5t22.5 -116.5q7 -79 20 -108q13 -28 31 -28q13 0 13 20
q-1 53 -14 164.5t-21 136.5q-10 31 -28 37.5t-34 -15.5q-10 -13 -68.5 -27t-103.5 -14q-21 0 -29 7.5t-15 35.5q-16 60 -32 262t-6 212q13 12 208 44z" />
    <glyph glyph-name="six" unicode="6" horiz-adv-x="698" 
d="M187 1398q-7 47 4 53q5 3 12 -12q4 -11 8 -29q7 -39 19 -46.5t34 12.5q15 14 18.5 11t3.5 -33q0 -28 4 -33.5t22 -1.5q17 5 19 2.5t-9 -14.5q-11 -14 1 -17q11 -3 65 -3q107 0 172.5 -36t94.5 -112q16 -41 13 -102t-22 -83q-26 -30 -157 3l-76 19l3 82q3 54 0 69t-17 18
q-27 5 -40.5 -25t-14.5 -98v-84l50 -1q43 0 92 -20.5t73 -47.5q60 -68 -6 -329q-23 -94 -45 -149t-53 -89t-69 -44t-98 -7q-74 4 -132.5 32t-92.5 75q-31 43 -33 94.5t23 146.5q23 88 23 143q0 38 6 49t35 25q42 20 70.5 55.5t22.5 59.5q-6 18 -27.5 40t-40.5 28
q-8 3 -8.5 16.5t6.5 47.5q8 37 7.5 49.5t-11.5 16.5q-10 5 -11.5 13.5t7 15.5t21.5 7q8 0 16 6.5t10 14.5q3 17 -7.5 20t-19.5 -12q-9 -14 -25 -11.5t-16 17.5q0 7 5 12t12 5q20 0 19 10q-5 14 -37 21l-38 8l28 23q28 24 13.5 29t-14.5 17q0 5 5.5 6t13.5 -2q20 -7 29.5 1
t-3.5 23q-13 16 -5 25q4 3 11 -0.5t13 -12.5q30 -40 27 7q-1 11 -3 26zM356 698q0 20 -9.5 42t-21.5 34t-19 5q-9 -8 -9.5 -61.5t-16.5 -129.5t-17 -123l-1 -46l30 29q22 22 43 104t21 146zM408 296.5q7 11.5 2 10.5q-4 -1 -19 -11q-18 -11 -4 -11t21 11.5zM288 1462
q-2 5 2.5 8.5t12.5 3.5t13 -3.5t3 -8.5q-4 -13 -15 -13t-16 13z" />
    <glyph glyph-name="seven" unicode="7" horiz-adv-x="604" 
d="M235 1259q169 13 230.5 14.5t73.5 -6.5q17 -11 28 -57.5t5 -81.5q-10 -59 -63 -250t-70 -230q-18 -39 -32 -45t-57 10q-34 12 -55 -1.5t-44 -64.5q-20 -44 -10 -59t50 -4q54 16 62 0q10 -19 -27 -126q-2 -7 -5 -15q-35 -99 -34.5 -134t7.5 -169q9 -172 0 -196
q-5 -14 -24 -14q-18 0 -21.5 21t5.5 78q17 102 -9 247q-6 33 -21.5 37t-25.5 -25q-11 -31 -5.5 -354.5t19.5 -455.5q8 -72 -7 -73q-8 0 -23 18q-15 17 -20 270.5t-12.5 409.5t1 161t8.5 34q0 19 -8 23.5t-42 4.5q-50 0 -63 13q-21 21 15 138.5t97 223.5q51 89 67 136t28 148
q12 105 23 151.5t11 59t-103 7.5q-70 -3 -91 0t-38 20q-21 21 -24.5 61.5t14.5 52.5q15 10 190 22zM424 1122q6 15 -1 22q-4 4 -6 -5q-1 -5 0 -10q0 -12 3 -13q1 0 4 6zM319 651q4 4 -6 5q-4 1 -9 1q-23 -2 -7.5 -7.5t22.5 1.5z" />
    <glyph glyph-name="eight" unicode="8" horiz-adv-x="614" 
d="M210 1273q68 23 110.5 21t103.5 -33q53 -26 87 -82q24 -38 30.5 -65t8.5 -100q4 -89 -8 -150t-35 -74q-12 -7 -11 -13.5t17 -23.5q43 -45 61.5 -144.5t0.5 -184.5q-39 -189 -306 -178q-63 3 -87 9t-51 27q-41 31 -55 80t-19 178q-4 94 -1 123t20 54q9 16 27 33.5t34 27.5
q26 16 26 20q1 3 -11 4q-27 0 -54 17t-46 46q-22 34 -22 101.5t23 141.5q24 76 54 107.5t103 57.5zM371 1029q-12 3 -28.5 15.5t-27.5 27.5l-29 36l-13 -35q-10 -27 -5.5 -97.5t17.5 -91.5q15 -24 32 5q7 12 13 32q6 23 13 29.5t26 3.5q30 -3 37 9q10 16 -1.5 38t-33.5 28z
M324 678q-4 31 -10.5 42.5t-18.5 11.5q-21 0 -26 -13t5 -47q11 -39 11 -157q0 -119 15 -119q7 -1 19 21q10 19 11.5 109t-6.5 152z" />
    <glyph glyph-name="nine" unicode="9" horiz-adv-x="629" 
d="M238 1258q63 9 158.5 2.5t118.5 -21.5q43 -28 62 -79t22 -157t-11 -281q-23 -305 -33 -348q-6 -22 -20 -46q-36 -57 -111 -79.5t-177 -5.5q-74 12 -117 34.5t-70 64.5q-21 32 -25.5 57.5t-4.5 112.5v55t3 40.5t4.5 30.5t10.5 18t15.5 12t24 4t31.5 1l43 -3q97 -7 107 -22
t10 -119q0 -132 24 -132q4 0 9 3q13 9 25 74t12 135v83h-84q-141 -1 -197 76q-23 30 -29 113.5t6 170.5t37 128q18 28 60 49t96 29zM326 1062q-21 55 -33 11q-9 -36 -18 -153q-3 -49 0 -64t20 -26q26 -17 53 -20t32 11q3 6 -2.5 10.5t-16.5 4.5q-16 0 -20 13q-4 14 -4 85
q0 98 -11 128z" />
    <glyph glyph-name="colon" unicode=":" horiz-adv-x="398" 
d="M117 445q41 10 99 6.5t70 -16.5q12 -15 13 -86t-11 -83t-107 -12.5t-107 11.5q-15 15 -15 77q0 48 13.5 71.5t44.5 31.5zM117 886q41 10 99 6.5t70 -16.5q12 -15 13 -86t-11 -83t-107 -12.5t-107 11.5q-15 15 -15 77q0 48 13.5 71.5t44.5 31.5z" />
    <glyph glyph-name="semicolon" unicode=";" horiz-adv-x="429" 
d="M311 483q2 6 13 -1q9 -6 5 -30.5t-15 -33.5q-7 -6 -8 -87q-2 -104 -44 -176.5t-101 -72.5q-33 0 -33 12.5t33 23.5q24 8 35 29t12 59q0 18 -8.5 22.5t-41.5 4.5q-57 0 -76 19.5t-18.5 78t19 76.5t92.5 33q68 14 90 2q17 -9 28 -2.5t15 27.5zM222 487q-2 5 2.5 9t12.5 4
t12.5 -4t3.5 -9q-4 -12 -15 -12t-16 12zM129 871q43 10 87 10t63 -11q14 -8 18 -25.5t4 -71.5v-84l-54 -8q-54 -7 -104 -7t-69.5 26.5t-12.5 84.5q5 47 17 62t51 24z" />
    <glyph glyph-name="less" unicode="&#x3c;" horiz-adv-x="130" 
 />
    <glyph glyph-name="equal" unicode="=" horiz-adv-x="130" 
 />
    <glyph glyph-name="greater" unicode="&#x3e;" horiz-adv-x="130" 
 />
    <glyph glyph-name="question" unicode="?" horiz-adv-x="741" 
d="M195 434q26 9 99.5 6.5t83.5 -12.5q14 -14 14 -92q0 -61 -9 -74q-12 -16 -71 -18h-47q-29 0 -46 1t-31.5 5t-21 9.5t-11 17.5t-6 26t-1.5 38q0 76 47 93zM462 1359q0 19 11 10q12 -9 18 -34q7 -34 24 -48q14 -11 18.5 -8.5t18.5 27.5q10 18 15 14q3 -4 11 -27
q7 -21 14.5 -27.5t20.5 -3.5q22 6 23 -6q1 -11 -19 -19q-9 -3 -11 -6.5t1.5 -8.5t15.5 -16q15 -14 17 -22.5t-6 -21.5q-6 -9 -14.5 -13.5t-14.5 -2.5q-15 6 -15 -3q1 -8 11 -35q10 -25 8 -26q-2 0 -16 12q-14 13 -18 5q-3 -10 -3 -81q-1 -76 -20 -129t-77 -140
q-32 -48 -64.5 -122.5t-39.5 -118.5l-9 -49l-94 -4l-94 -3l-7 50q-17 119 67 241q61 89 75 124.5t14 103.5q0 83 -7 102q-13 33 -22 1q-6 -24 -6 -74q0 -114 -20 -113q-2 0 -5 2q-9 5 -16 -6q-3 -5 1 -9t13 -5q7 0 -2 -2q-13 -3 -47 -7q-29 -3 -49.5 -3.5t-38.5 2t-29 7.5
t-19.5 16t-12 25t-4.5 36t1 47.5t6 61.5q7 59 13.5 94t19 65t27 44.5t42.5 24.5t60 12.5t85 2.5q79 0 105.5 -4.5t42.5 -18.5q32 -29 31 -6q-1 13 -12 40q-18 43 -18 53zM259 1161q7 12 -5 12t-18.5 -12t5 -12t18.5 12zM351 1142q-7 18 -13 18q-2 0 -3 -3t-1 -8
q0 -10 12 -17q6 -4 7 1q0 4 -2 9zM401 1067q4 63 -5 72q-4 4 -5 -13q-1 -18 1 -50l6 -72zM226 926q6 15 0 29q-3 9 -5 -3q-1 -5 -1 -11q0 -19 4 -18q1 0 2 3zM566 1399q0 7 3.5 12t8.5 5t8 -5t3 -12t-3 -12t-8 -5t-8.5 5t-3.5 12z" />
    <glyph glyph-name="at" unicode="@" horiz-adv-x="1262" 
d="M228 1212q0 7 3.5 12t8 5t8 -5t3.5 -12t-3.5 -12.5t-8 -5.5t-8 5.5t-3.5 12.5zM601 1251q64 7 111 -1q69 -12 113 -24.5t44 -20.5q0 -11 19 -11q28 0 113 -53.5t113 -89.5q25 -32 59.5 -110t46.5 -128q13 -58 12.5 -166t-14.5 -149q-15 -44 -48 -87t-33 -52
q0 -4 -19.5 -19t-46.5 -32q-64 -39 -126.5 -41t-135.5 33l-65 30l-55 -28q-35 -17 -61 -22t-78 -3q-78 4 -119.5 24t-59.5 63q-11 27 -13.5 74t1.5 175q5 157 17 216t44 85q18 15 95.5 19.5t111.5 -6.5q38 -14 42 -2q4 11 81 12t95 -10q13 -8 17 -62.5t5 -251.5
q1 -52 3.5 -82.5t7.5 -53.5t15.5 -33.5t25 -15t39.5 -4.5q67 0 118 98q5 10 9.5 38t7.5 61.5t4 66t-1 54t-6 21.5q-9 0 -9 41t-20 56.5t-13 27.5q3 5 0 10.5t-10 8.5q-17 6 -17 24t-12 18q-5 0 -8.5 5.5t-3.5 12.5q0 15 -105.5 67.5t-163.5 65.5t-108.5 4.5t-137.5 -44.5
q-84 -36 -136.5 -76.5t-43.5 -63.5q5 -12 0 -13q-2 0 -4 2q-10 6 -23 -27q-32 -82 -45 -244q-4 -39 -4 -74q-3 -135 66 -233.5t204 -149.5q93 -36 125 -38.5t46 -12.5t35 0.5t80 12.5q50 2 81.5 6.5t80.5 16.5q46 12 51 8q8 -8 7.5 -72.5t-8.5 -69.5q-12 -8 -42 -10.5
t-83 -9.5q-73 -9 -186.5 -8.5t-157.5 10.5q-58 13 -99 33l-91 44q-61 29 -113.5 90t-105.5 164q-54 107 -69.5 183.5t-16.5 237.5q0 126 18 160.5t10.5 34.5t11.5 29q9 14 13 21.5t4 12t-4 6t-13 1.5q-7 0 -11 3t-1 7t11.5 5.5t17.5 -0.5q22 -5 28.5 6.5t-10.5 25.5
q-21 18 -16.5 25t28.5 -9q20 -13 24.5 -13t4.5 13q0 20 -12 43t-8 43q5 18 22 -21q2 -4 4 -9q17 -42 27.5 -47t28.5 21q17 22 22 12q2 -6 43 6.5t87 32t60 31.5q14 11 20 5.5t51.5 13.5t109.5 26zM634 602q3 161 -10 161q-16 0 -22 -37t-6 -144q-1 -88 2.5 -114t14.5 -26
t14.5 30.5t6.5 129.5zM965 288q10 4 -3 5q-5 1 -11 1q-19 0 -18 -3q0 -2 3 -3q15 -6 29 0z" />
    <glyph glyph-name="A" unicode="A" horiz-adv-x="770" 
d="M270 1504q16 17 144 17h25h38t28 -3t22 -4t15 -11t12.5 -16t9 -26.5t9 -35l8.5 -47.5q4 -20 6 -31q25 -127 21 -148q-3 -15 -24 -27q-1 0 -3 -1q-30 -16 -46.5 -50t-16.5 -79q0 -32 6.5 -42.5t33.5 -21.5q41 -17 57 -11q17 8 25 -10q8 -19 24 -120q17 -115 46.5 -220
t29.5 -156v-51l-120 9q-119 9 -126 13q-6 3 -25 93.5t-24 132.5q-2 19 -11 24.5t-43 7.5q-51 4 -61 -11t-10 -134q0 -100 -8 -115q-4 -10 -25 -20q-30 -14 -35 -49t10 -132q15 -105 15.5 -274.5t-14.5 -187.5t-30.5 -18t-22.5 17q-7 18 5 96q14 100 10.5 196.5t-26.5 220.5
q-7 40 -31 39q-21 -1 -32 -31q-7 -20 -4 -46q2 -25 -16.5 -61.5t-13.5 -44.5q8 -12 15 -154t10 -326q4 -251 10 -388q5 -119 -2 -131q-4 -6 -15 -6q-12 0 -17 8t-6 30q-2 38 -7 73t-7.5 326.5t-12.5 456.5t5 219q11 37 8.5 54t-24.5 59q-26 50 -28.5 72.5t14.5 41.5
q23 25 53 130.5t48 222.5q23 155 57 336t42 254q4 31 11 57.5t14 33.5zM424.5 917q-0.5 38 -9.5 91l-9 52l-8 -57q-10 -67 -7.5 -95.5t16.5 -28.5q18 0 17.5 38z" />
    <glyph glyph-name="B" unicode="B" horiz-adv-x="798" 
d="M249 1393q10 20 40 21t102 -15q72 -17 147 -31q32 -6 62 -17.5t42 -21.5q19 -17 21.5 -25.5t-6.5 -25.5q-20 -38 1.5 -64t56.5 -7q23 12 33 5q17 -10 19.5 -68t-12.5 -114q-17 -69 -47.5 -116.5t-69.5 -65.5l-39 -19l31 -41q23 -29 27.5 -53.5t3.5 -116.5
q0 -78 -5.5 -117.5t-20.5 -80.5q-40 -108 -109 -143t-206 -18q-94 12 -178.5 31.5t-101.5 32.5q-13 11 -9 55.5t27 139.5q20 86 34 87q6 0 16 -17q9 -18 27.5 -22.5t34 5.5t17.5 30q3 30 -15 47.5t-48 11.5q-22 -4 -25 4q-4 15 30 146q2 9 7 28q30 117 65.5 325t47.5 230z
M492 1206q-17 11 -24 11t-25.5 -102t-26.5 -140q-4 -22 -2 -29.5t13 -7.5q21 0 39 43t29 121q9 59 8.5 78t-11.5 26zM411 726.5q0 31.5 -15 52.5q-10 13 -18 -11q-9 -26 -35 -152q-38 -183 -33 -188.5t29 7.5t36.5 80l24 123.5t11.5 88z" />
    <glyph glyph-name="C" unicode="C" horiz-adv-x="684" 
d="M617 1264q-6 11 6 10q9 0 22 -8q9 -9 8 -25.5t-12 -30t-23 -9.5q-15 6 -17 21.5t11 23.5q12 8 5 18zM399 1456q3 3 11 -2t16 -16q14 -18 21 -18.5t30 14t29.5 14.5t18.5 -16q16 -22 16.5 -38t35.5 -9q32 6 33.5 0t-25.5 -29q-15 -13 -17.5 -21t4.5 -21q12 -18 15.5 -114
t-5.5 -153l-7 -51h-89q-90 0 -103 9q-6 3 -11 32.5t-7 66.5q-4 91 -20 101t-8 23q3 5 2 9t-6 4q-8 0 -13 -5t-9 -22.5t-6 -43.5t-2.5 -75t0 -109t2.5 -155q7 -354 23 -384q7 -14 20 9q11 20 18 143l7 123l100 3q62 2 84.5 -0.5t31.5 -14.5q15 -18 20.5 -93.5t-2.5 -153.5
q-6 -52 -15 -72.5t-37 -48.5q-56 -56 -154 -73t-190 9t-131 86q-20 29 -31 89t-6 104q3 26 16.5 37.5t57.5 23.5q22 7 29 17t9 37q2 26 -3 38t-22 23q-29 19 -58 12q-21 -6 -27 0t-11 36q-8 45 -1 252q2 79 6 124.5t10 82.5t19 58.5t29.5 37t45.5 33.5q55 34 74.5 52.5
t26.5 6.5q3 -5 28 -8.5t56 -3.5q70 0 71 11q0 2 -1 5q-6 16 1 24zM154 1017q6 15 -1 22q-4 4 -6 -5v-10q0 -12 3 -13q1 0 4 6zM595 1474q7 12 12 12t5 -12t-12 -12q-5 0 -6.5 3.5t1.5 8.5z" />
    <glyph glyph-name="D" unicode="D" horiz-adv-x="665" 
d="M53 1428q18 17 43 20.5t124 -0.5q87 -3 123 -8.5t65 -20.5q50 -26 93.5 -74t68.5 -104q24 -52 40 -146t8 -128q-6 -21 -18 -28t-60 -18q-20 -4 -26.5 -12t-6.5 -29q0 -29 23 -50t54 -21q25 0 35.5 -11.5t14 -46t-0.5 -97.5q-7 -147 -51 -229t-129 -105
q-52 -15 -213.5 -13t-182.5 17q-13 10 -17 52q-6 61 -8 496q-3 462 3 513q4 28 18 43zM329 1100q-1 82 -3 110.5t-7.5 41.5t-19.5 23q-21 14 -23 12.5t9 -22.5q9 -16 10 -100.5t-3 -311.5q-8 -337 -1 -367q3 -15 14 -13q9 2 20 13t18 25q10 22 10.5 65t-8.5 169
q-14 198 -16 355z" />
    <glyph glyph-name="E" unicode="E" horiz-adv-x="622" 
d="M130 1545q96 7 229.5 8.5t148.5 -4.5q11 -4 15 -20.5t4 -55.5q0 -33 -3 -49.5t-17 -27t-35 -13t-63 -2.5q-47 0 -66 5.5t-39 24.5q-28 27 -53.5 23.5t-33.5 -36.5q-10 -37 2 -62t42 -31l36 -8l-6 -98l-7 -97l107 -4l107 -3l3 -69q4 -69 -11.5 -78.5t-99.5 -9.5h-85v-44
q0 -43 -13 -136.5t-5 -137.5l8 -44h104q27 0 38.5 -0.5t27 -0.5t21.5 -2t13.5 -3.5t12 -7.5t8.5 -10t12 -14q34 -45 42 -74t-6 -56q-10 -19 -11 -50.5t6 -111.5q12 -131 20.5 -166t-1.5 -109t3 -89.5t-1 -63.5q-27 -89 -56 -52q-8 9 -8 37.5t8 98.5q9 93 5.5 186t-18 162.5
t-34.5 69.5q-47 0 -47 -76q0 -48 -11.5 -59t-1 -180t16.5 -437.5t6.5 -283t-1 -29t6.5 -70.5q6 -38 3.5 -46.5t-19.5 -8.5q-24 0 -25.5 9t-6 38t-8 314.5t-12.5 419.5q-19 325 -2 330q15 5 10 52.5t-24 71.5q-11 16 -23.5 22t-39 9t-97.5 7q-57 4 -101 10t-49 11
q-12 12 -22 508t1 556l8 50zM395 1444q4 4 -5 5q-4 1 -10 0q-12 0 -13 -2q0 -2 6 -5q15 -5 22 2zM150 1180q6 15 -1 22q-4 4 -5 -5q-1 -4 -1 -10q1 -22 7 -7zM162 1115q6 21 0 35q-3 9 -5 -4q-1 -6 -1 -16q0 -20 3 -20q1 0 3 5zM209 1075q5 14 0 29q-4 9 -6 -4v-11
q0 -19 3 -18q1 0 3 4zM244 935q4 26 -1 46q-3 11 -4 -3q-1 -9 -1 -23q1 -29 3 -27q1 0 3 7zM244 824q4 32 0 58q-3 14 -4 -4q-1 -10 -1 -28q0 -35 2 -35q1 1 3 9zM128 643q4 73 0 146q-2 36 -4 0q-1 -24 -1 -73q0 -97 3 -90q1 2 2 17zM69 701q5 15 0 30q-4 9 -6 -4v-11
q0 -19 3 -18q1 0 3 3zM244 649q4 32 0 58q-3 14 -4 -3q-1 -11 -1 -29q0 -35 2 -34q1 0 3 8zM107 471q0 12 -5 12t-12 -12q-3 -5 -1.5 -8.5t6.5 -3.5q12 0 12 12zM174 464q3 4 -6 6h-10q-22 -1 -6.5 -7t22.5 1z" />
    <glyph glyph-name="F" unicode="F" horiz-adv-x="542" 
d="M232 1427q6 10 58 11t120 -7l60 -7l2 -71q1 -45 4 -42q1 1 2 11q9 88 23 88q3 0 6 -3q10 -10 1 -79l-8 -70l-84 -6q-83 -5 -89 -11t-15 -131l-8 -126h87h42.5t28 -4t19 -7.5t8.5 -16.5t4.5 -25.5t0.5 -38.5q0 -53 -18.5 -69t-86.5 -22l-70 -7l-1 -123q-4 -356 -34 -375
q-18 -11 -127 -9q-10 1 -27 1h-29.5t-21.5 3t-16.5 4t-10.5 9t-8 13t-4 21.5t-3.5 28t-2.5 38.5q-2 23 -3 36q-5 72 6 441.5t20 413.5q3 18 11.5 21t40.5 -2q51 -8 79 12.5t22 60.5q-5 35 4 33q10 -5 18 6zM304 1374q3 4 -6 5q-4 1 -10 0q-22 -1 -6.5 -6.5t22.5 1.5z
M292 1273.5q6 15.5 -1 22.5q-4 3 -6 -6v-10q1 -22 7 -6.5zM94 1162q6 20 0 35q-4 8 -5 -4q-1 -6 -1 -16q0 -21 3 -21q1 0 3 6zM280 1028q6 14 0 29q-3 9 -5 -3q-1 -5 -1 -12q0 -18 4 -18q1 1 2 4zM117 970q6 14 0 29q-4 9 -5 -4q-1 -4 -1 -11q0 -19 4 -18q1 0 2 4zM227 700
q12 24 1 105l-11 80l-1 -105q-1 -87 6 -87q2 0 5 7zM333 871q9 3 -4 5q-6 1 -16 1q-20 0 -20 -3q0 -1 5 -3q21 -6 35 0zM117 806q6 15 0 30q-4 9 -5 -4q-1 -4 -1 -11q0 -19 4 -18q1 0 2 3zM164 696q6 20 0 35q-4 8 -5 -5q-1 -6 -1 -16q0 -20 3 -20q1 0 3 6zM199 573
q5 15 0 29q-4 10 -6 -3v-11q0 -19 3 -18q1 0 3 3zM234 492q5 15 -2 22q-3 4 -5 -5q-1 -4 0 -10q0 -12 3 -13q1 0 4 6zM140 457q6 14 0 29q-3 9 -5 -4v-11q0 -19 3 -18q1 0 2 4zM129 357q6 21 0 35q-4 9 -5 -4q-1 -6 -1 -16q0 -20 3 -20q1 0 3 5zM190 350q6 6 8.5 16.5
t0.5 18.5q-3 12 -6 12q-1 0 -1 -3q-1 -14 -9 -35q-5 -16 -2 -15t9 6zM257 352q6 14 0 29q-4 9 -5 -4q-1 -4 -1 -11q0 -19 3 -18q2 0 3 4z" />
    <glyph glyph-name="G" unicode="G" horiz-adv-x="735" 
d="M182 1452q65 22 88.5 19.5t41.5 -33.5q13 -23 24 -28.5t39 -3.5q27 2 38.5 9.5t20.5 26.5q15 32 25 32q14 0 48.5 -45t45.5 -76q13 -40 28.5 -143t10.5 -116t-48 -20.5t-107 -7.5h-65l-14 88q-10 64 -22 93t-29 29q-35 0 11 -292q30 -185 35 -169q1 2 1 8q1 55 13 62.5
t78.5 17t114.5 17.5q41 7 54 -8q19 -20 38 -137l8 -51l24 -153l-25 -19q-31 -25 -23 -38q5 -7 22 -2q21 7 34 -20.5t13 -78.5v-45l-59 -8q-38 -5 -51.5 -2.5t-23.5 16.5q-11 15 -17 14.5t-26 -19.5q-55 -51 -142.5 -68.5t-143.5 10.5q-39 20 -68 57.5t-29 67.5
q0 34 -16.5 113.5t-41 306.5t-43.5 347q-14 80 -14 105.5t11 45.5q34 60 141 98zM503 1332q6 15 -1 22q-4 4 -6 -5v-10q1 -12 3 -13q2 0 4 6zM433 1285q6 15 -1 22q-4 4 -5 -5q-1 -4 -1 -10q1 -12 3 -13q2 0 4 6zM515 1273q6 14 0 29q-4 9 -6 -4v-11q0 -18 3 -18q1 0 3 4z
M212 1203q5 14 0 29q-4 9 -6 -3v-12q0 -18 3 -18q1 1 3 4zM142 1191q5 15 0 29q-4 10 -6 -3v-11q0 -19 3 -18q1 0 3 3zM258 1168q6 14 0 29q-4 9 -5 -3q-1 -5 -1 -12q0 -18 4 -18q1 1 2 4zM118 1122q6 15 -1 22q-4 4 -5 -5q-1 -5 -1 -10q1 -12 3 -13q2 0 4 6zM561 1122
q6 15 -1 22q-4 4 -5 -5q-1 -5 -1 -10q1 -12 3 -13q2 0 4 6zM270 1098q6 14 0 29q-4 9 -5 -3q-1 -5 -1 -12q0 -18 3 -18q2 1 3 4zM282 1016q5 15 0 29q-4 10 -6 -3v-11q0 -19 3 -18q1 0 3 3zM153 888.5q6 15.5 -1 22.5q-4 4 -5 -6q-1 -4 -1 -9q1 -23 7 -7.5zM165 830
q6 15 -1 22q-4 4 -6 -5v-10q1 -12 3 -12q2 -1 4 5zM574 826q7 7 -7 21q-9 9 -10.5 7.5t3.5 -13.5q3 -9 7 -13t7 -2zM398 760q6 14 0 29q-4 9 -5 -4q-1 -4 -1 -11q0 -18 4 -18q1 0 2 4zM573 707q6 21 0 35q-3 9 -5 -4q-1 -6 -1 -16q0 -20 3 -21q1 0 3 6zM412 704
q-21 0 -39 19q-16 17 -17 3q-1 -13 12 -86q11 -62 28 -98t35 -36q10 0 13.5 16.5t3.5 64.5q0 71 -7 94t-29 23zM188 679q6 15 -1 22q-4 4 -5 -5q-1 -5 -1 -10q1 -22 7 -7zM172 594q-8 51 -12 50q-3 -1 -3 -28q0 -34 11 -52q7 -11 7 5zM258 608q6 15 0 29q-4 10 -5 -3
q-1 -5 -1 -11q0 -19 4 -18q1 0 2 3zM620 608q5 15 0 29q-4 10 -6 -3v-11q0 -19 3 -18q1 0 3 3zM526 561q6 15 0 30q-3 9 -5 -4v-11q0 -19 3 -18q1 0 2 3zM584 509q5 20 0 41q-3 12 -5 -5v-16q0 -27 3 -25q1 1 2 5zM197 441q-7 17 -13 17q-4 0 -4 -10.5t12 -17.5q6 -4 7 2
q0 3 -2 9zM280 334q2 2 -2 6.5t-13 7.5q-12 5 -13.5 3.5t7.5 -10.5q14 -14 21 -7z" />
    <glyph glyph-name="H" unicode="H" horiz-adv-x="651" 
d="M57 1389q13 15 121 15q67 0 89 -3.5t27 -15.5q7 -18 7 -222q0 -61 0.5 -99t2.5 -61.5t4.5 -32t7.5 -6.5q13 4 27 115t15 217q1 56 5 76.5t15 24.5q20 8 122.5 7t107.5 -9q5 -9 9 -89l4 -80l-52 -13q-48 -12 -66.5 -40.5t-2.5 -64.5q10 -22 40.5 -39t51.5 -13
q11 3 17.5 -14.5t9 -68.5t1.5 -132.5t-5 -217.5q-10 -344 -10.5 -346.5t-119.5 -0.5l-119 3l-9 41q-10 40 -2 137q7 99 -1.5 220t-22.5 121q-9 0 -14 -53.5t-10 -194.5q-9 -248 -20 -270q-8 -15 -28 -17.5t-94 1.5q-46 2 -82 7.5t-41 10.5q-14 14 -12 155.5t16 171.5
q7 13 18 23t21 12q19 3 35.5 21t16.5 36q0 6 -13.5 17.5t-32.5 20.5l-47 24l-3 229q-2 212 1.5 297.5t14.5 99.5zM600 1343q6 16 -1 22q-4 4 -5 -5q-1 -4 -1 -10q1 -12 3 -12q2 -1 4 5zM115 1290q2 12 3 22t1 16t-1 6q-7 0 -11.5 -20.5t-1.5 -40.5q4 -21 7 -1q2 6 3 18z
M242 1276q0 35 -9.5 35t-4.5 -35t9.5 -35t4.5 35zM400 1174q8 98 3 120q-1 6 -3 -2q-5 -21 -10 -90q-9 -115 -3.5 -120.5t13.5 92.5zM487 1268q13 21 8 35t-6.5 0.5t-8.5 -35.5l-4 -16q1 1 11 16zM184 1275q0 11 -12 18q-5 3 -8 0t-3 -11q0 -18 11.5 -18t11.5 11zM146 1127
q4 32 0 58q-3 14 -4 -3q-1 -11 -1 -29q0 -35 2 -34q1 0 3 8zM157 1040q6 14 0 29q-4 9 -5 -4q-1 -4 -1 -11q0 -19 4 -18q1 0 2 4zM157 900q5 26 0 46q-3 11 -4 -3q-1 -8 -1 -23q0 -29 3 -27q1 0 2 7zM356 860q12 3 -4 5h-16q-27 0 -25 -3q0 -1 4 -2q21 -5 41 0zM491 768
q-7 47 -11 52q-3 3 -4 -5q-2 -28 10 -64l2 -6q7 -16 7 -1q-1 8 -4 24zM437 655q6 14 0 29q-4 9 -5 -4q-1 -4 -1 -11q0 -18 4 -18q1 0 2 4zM530 655q6 16 -1 23q-4 3 -5 -6q-1 -4 -1 -10q1 -12 3 -12q2 -1 4 5zM390 579q6 20 0 35q-3 8 -5 -4v-16q0 -21 2 -21t3 6zM542 579
q6 20 0 35q-3 8 -5 -4q-1 -6 -1 -16q0 -21 3 -21q1 0 3 6zM159 477q1 23 -9 70q-7 29 -8 32l-2 -7v-13q0 -48 13 -85q5 -15 6 3zM111 480q5 14 0 29q-4 9 -6 -3v-12q0 -18 3 -18q1 1 3 4zM250 468q6 15 0 29q-3 10 -5 -3v-11q0 -19 3 -18q1 0 2 3zM437 375q6 14 0 29
q-4 9 -5 -3q-1 -5 -1 -12q0 -18 4 -18q1 1 2 4zM157 352q6 15 -1 22q-4 4 -5 -5q-1 -4 -1 -10q1 -12 3 -13q2 0 4 6zM589 317q5 14 0 29q-4 9 -6 -4v-11q0 -19 3 -18q1 0 3 4z" />
    <glyph glyph-name="I" unicode="I" horiz-adv-x="412" 
d="M244 1377q24 41 36 -25q7 -36 29 -248.5l42 -422.5q17 -192 27 -285.5t-0.5 -100.5t-121.5 -14.5t-120 -1.5t-17 44q-9 45 -49 487t-40 497q0 56 6 57q4 0 15 -11q30 -27 101.5 -18t91.5 42zM147 1259q0 5 -18 5q-8 0 -11 -3.5t0 -8.5q5 -8 17 -5t12 12zM178 1209
q6 20 0 35q-3 8 -5 -4q-1 -7 -1 -17q0 -20 3 -20q1 0 3 6zM131 952q5 32 0 64q-2 18 -4 -3v-29q0 -42 3 -39q1 1 1 7zM96 994q6 15 -1 22q-4 4 -5 -6q-1 -4 -1 -9q1 -13 3 -13q2 -1 4 6zM201 754q5 32 0 64q-2 18 -4 -4v-28q0 -42 3 -39zM166 772q6 15 -1 22q-4 4 -5 -5
q-1 -4 -1 -10q1 -12 3 -13q2 0 4 6zM178 509q6 20 0 35q-3 8 -5 -4q-1 -6 -1 -16q0 -21 3 -21q1 0 3 6zM260 480q4 26 0 52q-3 15 -4 -2q-1 -9 -1 -24q0 -34 3 -32q1 0 2 6zM331 448q0 17 -9 46q-6 18 -8 19q-1 1 -2 -5v-8q-1 -23 10 -46q9 -21 9 -9v3zM190 398q6 15 0 29
q-4 10 -6 -3v-11q0 -19 3 -18q1 0 3 3zM155 381q6 20 0 35q-4 8 -5 -4q-1 -7 -1 -17q0 -20 3 -20q1 0 3 6zM236 375q6 14 0 29q-3 9 -5 -3v-12q0 -18 3 -18q1 1 2 4z" />
    <glyph glyph-name="J" unicode="J" horiz-adv-x="734" 
d="M610 1007.5q0 4.5 5.5 8t12.5 3.5t12 -3.5t5 -8t-5 -8t-12 -3.5t-12.5 3.5t-5.5 8zM167 1275.5q0 11.5 5.5 11.5t12.5 -11q3 -5 1.5 -8.5t-6.5 -3.5q-13 0 -13 11.5zM686 1451q7 11 12.5 11t5.5 -11.5t-13 -11.5q-5 0 -6.5 3.5t1.5 8.5zM161 1462q7 12 12.5 12t5.5 -11.5
t-12 -11.5q-6 0 -7.5 3t1.5 8zM242 1494q15 38 42 -41q2 -9 5 -19q18 -62 42 -92q16 -21 23 -23t18 9q17 17 17 28t16 17t22 33q4 23 10 -2q2 -8 4 -20q4 -21 10 -35.5t10.5 -14.5t5.5 -8.5t-2 -20.5q-7 -28 5 -28q11 -1 45 19q36 21 42.5 10.5t-23.5 -42.5l-33 -35h36
q15 0 29.5 -5t20.5 -11q12 -15 17 -406.5t-6 -485.5q-10 -82 -37 -138t-67 -77q-27 -13 -58 -15.5t-117 1.5q-134 7 -170 18q-73 23 -101.5 107.5t-10.5 224.5q12 100 20 112q7 12 99.5 11t99.5 -13q8 -13 -8 -24q-13 -8 -7 -10q4 -1 16 3q5 1 10.5 -24t10 -65.5t5.5 -79.5
q1 -63 18 -60q11 2 26 36q11 27 13.5 67.5t-1.5 142.5l-6 166h29q61 0 85 57q13 33 1 58t-45 32q-32 6 -64.5 24t-47.5 6q-17 -14 -35.5 -4.5t-18.5 31.5q0 26 19.5 33.5t39.5 -9.5q7 -7 15.5 -10t12.5 0q8 9 7 64.5t-10 55.5q-10 0 -41 -28.5t-31 -38.5q0 -4 -8 -6.5
t-18 -1.5q-16 1 -21.5 9t-6.5 32q0 28 6 26q6 -7 15.5 -5t20.5 14.5t16 28.5q5 17 -4.5 20t-63.5 2h-10q-51 -2 -54 4.5t32 48.5l7 7q20 25 19 36t-25 16q-26 7 -30 20q-3 7 8 9q13 2 48 -2q53 -7 54 2q0 2 -1 4q-4 5 -2 9.5t9 4.5q12 0 -22 31q-4 4 -9 8q-18 16 -30 32
t-10 22q5 15 47 -22q53 -46 73 -34q7 4 7 14q0 16 -30 94.5t-24 95.5zM526 1041q5 15 -7 28q-8 8 -8 1q0 -5 3 -16q5 -16 9 -17q2 0 3 4zM393 932q-7 17 -11.5 17t-4.5 -17q0 -7 3.5 -12.5t8 -5.5t5.5 5.5t-1 12.5zM537 719q5 55 0 111q-2 29 -3 -3q-1 -19 -1 -53
q0 -72 3 -68q1 2 1 13zM572 742q5 44 0 88q-3 23 -4 -4q-1 -14 -1 -40q0 -57 3 -54q1 1 2 10zM518 511q10 35 6 38q-3 4 -9 -8q-9 -23 -8 -44q0 -14 7 4zM409 515q5 16 -2 23q-3 3 -5 -6q-1 -4 0 -10q0 -12 3 -12q1 -1 4 5zM86 507q0 11 -12 11t-12 -18q0 -8 3.5 -11t8.5 0
q12 7 12 18zM214 473q0 20 -12 27.5t-11 -3.5q1 -9 12 -26q7 -11 9 -11t2 13zM111 441q3 12 2 21t-5 9q-11 0 -15 -16.5t3 -28.5q9 -14 15 11v4zM502 410q6 14 0 29q-4 9 -5 -3q-1 -5 -1 -12q0 -18 3 -18q2 1 3 4zM171 360q-7 35 -17 59q-7 17 -8 17t-1 -17q0 -24 16 -59
l17 -35zM572 328q5 27 0 53q-3 15 -4 -3q-1 -9 -1 -23q0 -34 3 -33q1 1 2 6zM257 317q5 26 -1 46q-2 11 -4 -3v-23q0 -29 3 -27q1 0 2 7zM101 267q-7 35 -17 53q-11 19 -10 5q1 -22 17 -58l17 -35zM477.5 243.5q7.5 11.5 11.5 28t2 27.5q-4 17 -5 19l-2 -21q-1 -12 -9 -28.5
t-18 -27.5q-23 -25 -12 -26q6 0 15.5 8.5t17 20zM185 238q-21 23 -27 23t15 -23t27 -23t-15 23zM234 156q-55 7 -92 42q-28 26 -29 22q0 -2 6 -14q14 -27 50 -44t76 -15q31 1 31 2zM502 150q32 28 25 27t-44 -28q-37 -26 -27 -28q13 0 46 29zM327 149q4 4 -5 6h-10
q-22 -1 -7 -7t22 1zM657 1526q0 7 3.5 12.5t8 5.5t8 -5.5t3.5 -12.5t-3.5 -12t-8 -5t-8 5t-3.5 12zM435 1538q0 17 4.5 23t15.5 4q22 -4 23.5 -18.5t-18.5 -25.5q-16 -9 -20.5 -6t-4.5 23z" />
    <glyph glyph-name="K" unicode="K" horiz-adv-x="718" 
d="M102 1396q32 4 116 6q30 1 45.5 0.5t30 -6t19.5 -13t8.5 -27t2.5 -40.5t-4 -61q-5 -82 2 -83q4 -1 15 27q10 25 30 83q31 93 43 107q13 16 102.5 15.5t110.5 -16.5q12 -8 15 -19.5t-4 -48.5t-22.5 -89.5l-49.5 -160.5l-59 -187l41 -157q41 -156 92.5 -286.5t51.5 -152.5
q0 -14 -15 -19.5t-68 -9.5q-184 -15 -215 31q-16 25 -29 104.5t-28 116.5q-8 18 -11 18q-5 0 -6 -118q-1 -91 -5 -115.5t-19 -32.5q-19 -10 -111 -11.5t-107 8.5q-5 3 -9.5 30t-5.5 61l-2 84l44 22q41 20 48.5 50t-22.5 51q-27 19 -47 19q-19 0 -28.5 9t-15.5 37.5
t-5.5 80.5t1.5 139q3 126 7.5 176t14.5 61q11 13 11 22t-12 33q-18 36 -18 111q0 102 19 106q4 1 10 -1q15 -5 22 7q4 5 2 8.5t-7 3.5q-14 0 -13 7q1 11 26 18zM264 1214q5 50 0 100q-2 27 -4 -4v-46q0 -67 3 -61q0 2 1 11zM582 1325.5q1 20.5 -8 20.5t-11 -44q-1 -29 2 -30
q2 -1 7 10q9 23 10 43.5zM210 1304q0 18 -12 18t-12 -11t12 -18q5 -3 8.5 0t3.5 11zM89 1244q6 20 0 35q-3 8 -5 -5v-16q0 -20 2 -20t3 6zM431 1266q0 27 -19 -18l-2 -4q-10 -22 -9 -24q0 -1 7 7q2 2 6 7q17 23 17 32zM556 1227q6 15 -1 22q-4 4 -6 -5v-10q1 -22 7 -7z
M526 1140q12 21 7 27q-3 2 -6.5 -2t-6.5 -12q-11 -28 -5 -27q3 1 11 14zM264 1075q6 15 -1 22q-4 4 -5 -5q-1 -4 -1 -10q1 -12 3 -13q2 0 4 6zM218 981q6 15 0 29q-4 10 -6 -3v-11q0 -19 3 -18q1 0 3 3zM264 912q6 15 -1 22q-4 4 -5 -5q-1 -4 -1 -10q1 -12 3 -13q2 0 4 6z
M414 733q-9 47 -18 57q-3 3 -3 -3q-1 -10 5 -37q13 -59 19 -56q3 1 -3 39zM109 686q-6 17 -12 17q-4 0 -4 -10.5t12 -17.5q6 -4 6 2q1 3 -2 9zM369 620q6 16 -1 23q-4 3 -5 -6q-1 -4 -1 -10q1 -12 3 -12q2 -1 4 5zM499 581q7 7 -8 21q-8 9 -9.5 7.5t2.5 -13.5q3 -9 7.5 -13
t7.5 -2zM499 465q0 12 -15 53q-15 38 -16 20v-3q-1 -23 16 -52q11 -20 14 -20q1 0 1 2zM259 357q-5 61 -8 66q-2 3 -3 -8q-2 -11 -4 -41q-5 -66 7 -66q5 0 7.5 14t0.5 35zM136 317q6 15 -1 22q-4 4 -6 -5v-10q1 -12 3 -12q2 -1 4 5zM180 320q-7 11 -12 11t-5 -11.5t12 -11.5
q5 0 6.5 3.5t-1.5 8.5zM221 319.5q0 11.5 -5 11.5t-12 -11q-3 -5 -1.5 -8.5t6.5 -3.5q12 0 12 11.5z" />
    <glyph glyph-name="L" unicode="L" horiz-adv-x="552" 
d="M121 1419l102 6q32 2 53 -4.5t21 -17.5q0 -4 -5.5 -7.5t-12.5 -3.5t-12 -3.5t-5 -9.5q0 -5 4.5 -7t11.5 1q18 7 25 -68q6 -80 -5 -197q-13 -127 -13 -242q0 -104 -14 -113q-9 -6 -34 17q-19 18 -42 6.5t-37 -46.5q-24 -56 -1 -74.5t69 19.5q14 13 28 20t18 4
q14 -9 26 -80t6 -115l-6 -56h97q98 0 110 -15.5t16 -77.5q2 -44 -2 -55t-24 -17q-48 -9 -147 -9.5t-197.5 8t-94.5 19.5q4 13 -11 28q-13 13 -15 69q-2 71 11 493l13 457l1 66zM83 1367q6 15 -1 22q-4 4 -5 -5q-1 -5 -1 -10q1 -12 3 -13q2 0 4 6zM224 1363q-3 2 -38 11
q-25 5 -26 4q-2 -1 8 -9q2 -1 6 -4q22 -17 38 -11q13 5 12 9zM168 1318q0 11 -13 2q-10 -6 -14 -16q-5 -13 -3 -14t13 8q17 15 17 20zM223 1297q6 15 -1 22q-4 4 -5 -5q-1 -5 -1 -10q1 -12 3 -13q2 0 4 6zM177 1226q4 26 -1 47q-3 10 -4 -4q-1 -8 -1 -22q1 -29 3 -28
q1 1 3 7zM258 1098q6 16 -1 23q-4 3 -5 -6q-1 -4 -1 -10q1 -12 3 -12q2 -1 4 5zM223 924q6 15 -1 22q-4 4 -5 -6q-1 -4 -1 -9q1 -12 3 -13t4 6zM138 838q2 7 0.5 12.5t-6 5.5t-7.5 -5.5t-3 -12.5q0 -17 4.5 -17t11.5 17zM258 632q6 15 -1 22q-4 4 -5 -5q-1 -4 -1 -10
q1 -12 3 -13q2 0 4 6zM118 457q6 15 -1 22q-4 4 -5 -5q-1 -4 -1 -10q1 -22 7 -7zM99 350q-10 10 -16 34l-4 12q-2 -1 -3 -20q-1 -31 17 -45q15 -13 17 -3q1 9 -11 22zM150 384q-38 28 -35 8q0 -3 2 -8q3 -8 12 -13t20 -5q18 0 18 2.5t-17 15.5zM466 389q-7 12 -12.5 12
t-5.5 -11.5t13 -11.5q5 0 6.5 3t-1.5 8zM352 370q12 3 -4 5h-16q-27 0 -25 -3q0 -1 4 -2q21 -5 41 0z" />
    <glyph glyph-name="M" unicode="M" horiz-adv-x="948" 
d="M124 1412q6 15 97.5 17t100.5 -13q7 -11 18 -5q7 4 13 -3t15 -34t19.5 -71l27.5 -120q6 -26 15 -70q35 -159 43 -167q5 -4 9 9q3 8 11 37q4 17 7 26q25 94 43 225q8 63 13 93.5t10.5 51t10 25t13.5 5.5q51 2 116.5 2t121.5 -3t56 -6q-1 -10 14 -19q10 -5 14 -72t6 -254
q3 -316 -4 -355q-4 -25 -14 -36t-38 -22q-18 -7 -33.5 -17t-18.5 -17q-8 -21 9 -42t51 -33l42 -15l-9 -87q-9 -88 -10 -111q-1 -9 -6 -15.5t-11 -6.5q-14 1 -105 3l-91 2l-8 171q-9 171 -17 218l-9 46l-19 -87l-39 -186q-16 -84 -28 -119.5t-27 -44.5q-16 -11 -75 -9t-74 14
q-19 14 -31 55q-15 48 -37 155t-29 163q-8 65 -14 60q-6 -7 -14 -209t-23 -220.5t-99 -18.5h-84l1 166q1 165 -14 413q-7 104 -9 171.5t0 110.5t9 61t19 17q20 0 49 -16q30 -17 44 -16t26 23q14 26 5 64.5t-36 67.5q-12 13 -18.5 27t-4.5 21zM872.5 1373q0.5 9 -10.5 9
q-5 0 -8 -9.5t-3 -22.5q0 -23 3 -23q2 0 8 14q10 23 10.5 32zM699 1306q0 18 -4.5 18t-10.5 -18q-3 -7 -1.5 -12t6 -5t7.5 5t3 12zM776 1293q7 20 1 26q-2 1 -4 0t-4.5 -5t-4.5 -9q-7 -20 -1 -26q2 -1 4 0.5t4.5 5t4.5 8.5zM731 1194q6 15 -1 22q-4 3 -6 -6q-1 -4 0 -9
q0 -12 3 -13q1 -1 4 6zM394 1124q6 15 -1 22q-4 4 -5 -5q-1 -4 -1 -10q1 -12 3 -13q2 0 4 6zM847 984q4 49 0 99q-3 26 -4 -4q-1 -16 -1 -46q0 -66 3 -60q1 1 2 11zM406 1077.5q6 15.5 -1 22.5q-4 3 -6 -6v-10q1 -22 7 -6.5zM224 1051.5q0 5.5 -12 5.5t-12 -12.5t12 -5.5
t12 12.5zM161 989.5q7 6.5 2 28.5q-4 15 -6 15.5t-9 -15.5q-9 -21 1 -30q5 -5 12 1.5zM224 982q0 5 -12 5t-12 -12t12 -5t12 12zM696 811q6 15 -1 22q-4 3 -6 -6v-9q1 -12 3 -13t4 6zM359 764q6 14 0 29q-3 9 -5 -4v-11q0 -19 3 -18q1 0 2 4zM174 694q4 26 0 52q-3 15 -4 -3
q-1 -8 -1 -23q0 -34 3 -32q1 0 2 6zM549 627q12 28 8 63l-5 36l-2 -35q-1 -35 -8 -64l-6 -29zM833 702q20 15 11 17q-11 0 -34 -17q-19 -15 -11 -17q12 0 34 17zM429 508q5 38 0 70q-2 16 -4 -3q-1 -12 -1 -35q0 -43 3 -41q1 1 2 9zM499 560q5 21 0 35q-4 9 -5 -4
q-1 -6 -1 -16q0 -20 3 -20q1 0 3 5zM487 497q6 14 0 29q-4 9 -5 -4q-1 -4 -1 -11q0 -18 4 -18q1 0 2 4zM394 462q6 15 -1 22q-4 4 -5 -5q-1 -4 -1 -10q1 -12 3 -12q2 -1 4 5zM777 427q6 15 0 29q-4 9 -5 -3q-1 -5 -1 -11q0 -19 4 -19q1 1 2 4zM731 428q6 15 -1 22
q-4 3 -6 -6q-1 -4 0 -9q0 -12 3 -13q1 -1 4 6z" />
    <glyph glyph-name="N" unicode="N" horiz-adv-x="754" 
d="M115 1398q3 8 6.5 11.5t18.5 5.5t36.5 1t68.5 -4q143 -10 142 -30q0 -5 -9 -10q-14 -9 -3 -26t11 -2.5t11 14.5q9 0 20 -39.5t39 -179.5q21 -103 30 -106q5 -2 9 19q5 29 12 128q8 115 20 160l12 45l82 -8q82 -7 93 -14q19 -11 4 -280.5t-47 -478.5q-19 -131 -31 -152
q-8 -15 -34 -29q-34 -17 -52 -63q-33 -80 -124 -42q-27 11 -35 23.5t-13 49.5q-8 56 -30.5 143t-36.5 186q-15 109 -24 112q-6 1 -11 -44q-1 -10 -2 -24q-17 -236 -28.5 -332t-23.5 -100q-16 -7 -106 1l-90 8l5 82q21 365 44 647.5t36 327.5zM209 1031q6 15 -1 22
q-4 4 -6 -5q-1 -4 0 -10q0 -12 3 -13q1 0 4 6zM468 789.5q0 11.5 -12 11.5t-12 -11.5t12 -11.5t12 11.5zM638 642q6 20 0 35q-3 8 -5 -5q-1 -6 -1 -16q0 -20 3 -20q1 0 3 6zM93 508q4 26 -1 47q-3 10 -4 -4q-1 -8 -1 -22q1 -29 4 -28q1 1 2 7zM85 389q0 7 -3.5 12.5
t-7.5 5.5t-9 -5.5t-8 -12.5q-6 -17 11 -17q6 0 11.5 5t5.5 12zM427 371.5q-7 11.5 -12.5 11.5t-5.5 -11.5t12.5 -11.5t5.5 11.5z" />
    <glyph glyph-name="O" unicode="O" horiz-adv-x="628" 
d="M205 1377q80 21 158 9.5t135 -53.5q51 -36 66.5 -82t15.5 -160q0 -128 12 -325q10 -165 1.5 -262.5t-37.5 -155.5q-26 -51 -89.5 -80.5t-142.5 -26.5q-110 4 -184 32t-93 73q-8 22 -11 124.5t-6 470.5q0 85 2 142.5t9.5 105.5t19 77t32.5 52t47 35.5t65 23.5zM202 1324
q6 10 3.5 10t-26.5 -11q-20 -9 -10 -10q2 0 7 -1q20 0 26 12zM510 1213q0 12 -12 29q-10 14 -11 6q0 -12 11 -29q11 -14 12 -6zM57 1192q6 5 8.5 15.5t0.5 19.5q-3 11 -6 11q-1 1 -1 -3q-2 -14 -9 -35q-5 -15 -2 -14q3 0 9 6zM403 1178q7 6 -7 21q-9 8 -10.5 7t3.5 -14
q3 -8 7 -12.5t7 -1.5zM329 1160q-25 30 -35 32.5t-36 -15.5q-15 -10 -20.5 -23.5t-5.5 -37.5q1 -37 9 -27q15 24 22 -21q3 -22 3 -58q0 -57 -8.5 -75t-37.5 -18q-32 0 -46 -16.5t-1 -40.5q12 -22 21 -22t33 23q16 15 22.5 16.5t10.5 -7.5q6 -16 9 -220q2 -132 6 -168t16 -38
q7 -2 15 3.5t12 13.5q13 32 27 195.5t14 291.5q0 94 -1.5 127t-7 49.5t-21.5 35.5zM176 1074q-6 30 -10 28t-4 -34q1 -32 10 -29q10 6 4 35zM438 804q4 55 0 110q-3 29 -4 -2q-1 -19 -1 -53q0 -72 3 -67q1 1 2 12zM553 880q6 15 -1 22q-4 4 -6 -5v-10q1 -12 3 -12q2 -1 4 5z
M100 700q5 43 0 81q-2 20 -3 -3q-1 -14 -1 -41q0 -52 2 -48q1 1 2 11zM228 775q6 15 0 29q-4 9 -5 -3q-1 -5 -1 -11q0 -19 4 -18q1 0 2 3zM169 740q7 26 -5 26q-14 0 -19 -23.5t5 -46.5q7 -18 9 -19q1 -1 2 5v9q1 23 8 49zM378 607q6 20 0 41q-3 12 -4 -5q-1 -6 -1 -16
q0 -27 3 -25q1 1 2 5zM429 526q13 21 8 47q-3 13 -5 13q-1 0 -1 -5q-2 -18 -9 -47q-4 -19 -3 -20l6 7q2 2 4 5zM557 463q12 39 8 87l-5 34q-1 -3 -2 -26q-2 -41 -7 -87l-6 -47zM530 544q6 15 -1 22q-4 4 -6 -6v-9q1 -22 7 -7zM460 369q6 14 0 29q-4 9 -5 -3q-1 -5 -1 -12
q0 -18 4 -18q1 1 2 4zM197 370.5q0 11.5 -11.5 18.5t-11.5 -4.5t11.5 -18.5t11.5 4.5zM516 337q8 13 0 12q-14 -1 -36 -26q-18 -19 -16 -20q1 0 19 9q26 13 33 25z" />
    <glyph glyph-name="P" unicode="P" horiz-adv-x="641" 
d="M87 1268q-7 10 203 7l100.5 -3t69 -5t49 -8.5t31.5 -16t25.5 -24t22.5 -35.5q15 -26 19 -64.5t4 -166.5q0 -150 -10 -207t-44 -100q-29 -37 -69.5 -52.5t-105.5 -15.5q-79 1 -79 -17q-1 -9 13 -22q13 -13 10 -52q-5 -99 0.5 -226t16.5 -162q4 -13 -4.5 -87t3.5 -94
t-4 -69.5t-36 -53.5q-24 -4 -27 37q-2 29 6 80q12 72 8 177l-3 104l-63 3q-54 3 -57 -5q-1 -3 3 -11q8 -19 13 -259q7 -325 21 -651q4 -87 12 -113q5 -17 1 -21.5t-25 -4.5h-33l-3 102q-3 101 -6.5 403t-13.5 432l-9 131h-32q-23 0 -29.5 12t-15.5 75q-13 89 -12.5 192
t13.5 111q14 9 19 -5q5 -17 26 -13.5t26 21.5q6 23 -9 44q-11 16 -16.5 15.5t-23.5 -16.5q-16 -15 -22.5 -16t-14.5 10q-9 15 -3 298t17 310q7 18 8.5 18t2 -17.5t3 -17.5t14.5 16q6 9 9 19t1 14zM283 1199q9 4 -4 6h-11q-18 0 -18 -3q1 -1 4 -3q14 -5 29 0zM87 1177
q6 16 2 19q-4 2 -12 -12q-8 -13 -2 -18q2 -3 5.5 0.5t6.5 10.5zM471 1172.5q-7 11.5 -12 11.5t-5 -11.5t12 -11.5t5 11.5zM352 1062q-8 12 -29 28q-12 9 -15 -4q-5 -17 -5 -155q0 -61 0.5 -92t2.5 -50.5t5.5 -24t9.5 -2.5q18 7 29 28q10 18 11 139t-9 133zM520 1031
q6 15 -1 22q-4 4 -5 -5q-1 -4 -1 -10q1 -12 3 -13q2 0 4 6zM68 891q4 26 -1 47q-3 10 -4 -4q-1 -8 -1 -22q1 -29 3 -28q1 1 3 7zM520 845q6 15 -1 22q-4 4 -5 -5q-1 -4 -1 -10q1 -12 3 -12q2 -1 4 5zM129 714q-14 18 -25 18q-10 0 0 -15q1 -1 2 -3q14 -17 25 -17q10 0 0 14
q-1 2 -2 3zM91 678q4 4 -5 6h-10q-22 -1 -7 -7t22 1zM460.5 655q22.5 16 15 23.5t-15.5 -5t-33 -23t-7 -11t40.5 15.5zM94 487q0 11 -11 18q-5 3 -8.5 0t-3.5 -11q0 -18 11.5 -18t11.5 11zM79 328q5 32 0 58q-2 14 -4 -3v-29q0 -37 2 -34q1 1 2 8zM123 279q-8 13 -12.5 11
t-4.5 -18q0 -7 3.5 -10t8.5 0q11 7 5 17zM280 248q0 9 -0.5 16t-1.5 10.5t-2 3.5q-31 -9 -34.5 -16t14.5 -23t21 -14.5t3 23.5z" />
    <glyph glyph-name="Q" unicode="Q" horiz-adv-x="665" 
d="M168 1323q28 24 47.5 29.5t78.5 5.5h86l3 -37q3 -26 9 -32t30 -6q20 0 27 5t7 18q0 14 9 19.5t35 7.5t41.5 -4t35.5 -26q38 -38 50 -95.5t5 -177.5q-7 -138 -17 -156q-4 -8 -22 -20.5t-39 -22.5q-32 -15 -42 -26.5t-13 -34.5q-5 -53 18.5 -73.5t61.5 3.5q14 8 21 7.5
t14 -10.5q13 -22 9.5 -87t-22.5 -126q-18 -60 -56 -124t-56 -64q-15 0 -15 -8v-21q0 -4 12 -12.5t29 -15.5l18 -7t11 -7.5t7 -8.5t2.5 -13.5t1 -19t-1.5 -28.5l-4 -67l-73 2q-80 2 -124.5 38t-44.5 99q0 26 -6 31.5t-36 4.5q-48 -1 -113 34t-92 77q-22 33 -26.5 57t-2.5 98
q2 122 32 390t46 314q8 23 25 49t34 41zM392 1178q-24 30 -34 13q-10 -18 -17 -105q-8 -82 -31 -221q-22 -136 -29.5 -278t6.5 -151q31 -19 52 52q28 95 50 397q11 168 12 225t-9 68zM459 1031q6 15 -1 22q-4 4 -6 -5v-10q0 -12 3 -13q1 0 4 6zM562 922q7 20 1 26
q-1 1 -3.5 -0.5t-5 -5t-4.5 -8.5q-6 -20 -1 -26q2 -1 4 0t4.5 5t4.5 9zM98 874q6 20 0 40q-3 13 -4 -4q-1 -6 -1 -16q0 -27 3 -25q1 1 2 5zM215 892q6 15 -1 22q-4 4 -5 -5q-1 -5 -1 -10q1 -22 7 -7zM250 578q5 26 0 52q-3 15 -4 -3q-1 -8 -1 -23q0 -34 3 -32q1 0 2 6z
M567 624q0 26 -8 26q-3 -1 -8 -9q-6 -9 5 -26q9 -15 10 0q1 3 1 9zM532 634.5q0 4.5 -18 4.5q-6 0 -11.5 -3.5t-5.5 -8t5.5 -5.5t11.5 1q18 7 18 11.5zM124 407q-1 17 -10 46q-5 17 -7 19q-2 1 -2 -6q-1 -3 -1 -7q0 -23 10 -47q9 -20 10 -8v3z" />
    <glyph glyph-name="R" unicode="R" horiz-adv-x="648" 
d="M100 1408q43 5 176 7q89 1 121 -3.5t71 -22.5q58 -27 77 -49q38 -43 51 -139.5t-9 -170.5q-14 -45 -58 -83l-44 -38l30 -28q53 -49 74.5 -138t25.5 -275l3 -143h-113h-114l-15 38q-15 38 -22 200q-6 134 -19.5 194t-39.5 65q-14 3 -16 -10q-5 -19 3 -174q12 -221 7 -262
q-6 -50 -35 -59q-17 -5 -91 -1q-96 5 -107.5 16.5t-14.5 150.5l-3 138l32 -3q21 -2 26.5 3t5.5 27q0 33 -36 67l-36 34l8 279q7 278 13 327q5 35 12 42.5t37 10.5zM332 1240q-21 21 -27 1q-6 -19 -6 -115q0 -127 16 -127q7 0 19 22q12 23 11.5 114.5t-13.5 104.5zM462 876.5
q-14 17.5 -18 17.5q-1 0 -1 -2.5t0.5 -6.5t2.5 -8q3 -7 8 -12.5t10 -5.5q12 0 -2 17.5zM448 755q0 17 -9 46q-6 17 -8 19q-1 1 -2 -6v-7q-1 -23 10 -46q9 -21 9 -9v3z" />
    <glyph glyph-name="S" unicode="S" horiz-adv-x="622" 
d="M192 1405q29 9 133 10q75 1 120.5 -10t75 -42.5t41.5 -82t15 -134.5l4 -114l-110 4l-110 3l-8 83q-11 127 -32 131q-10 1 -24.5 -16.5t-9.5 -74.5q5 -48 41 -104t126 -156q29 -32 60 -75t45 -70q23 -44 28.5 -73t4.5 -103q0 -95 -13.5 -143.5t-49.5 -82.5
q-22 -20 -45 -28t-85 -14q-262 -28 -337 91q-17 29 -21.5 57.5t-4.5 112.5q0 126 14 131q5 2 7.5 8t-0.5 13q-2 6 0.5 9t12 5t25.5 2.5t44 0.5h88l1 -37l2 -38l9 35q7 26 9 -2q1 -14 2 -45q2 -142 37 -169q18 -15 39 17q22 33 25 89t-15 89q-9 16 -57 69t-107 112
q-88 89 -115 123t-27 54q0 29 12.5 46t33.5 17q20 0 32.5 13.5t6.5 28.5q-2 6 -10.5 11t-17.5 5q-26 0 -42.5 32.5t-11.5 73.5q6 46 21 63q12 15 58.5 40t79.5 35zM375 1077q5 14 0 29q-4 9 -6 -3v-12q0 -18 3 -18q1 1 3 4zM61 1031q6 15 -1 22q-4 4 -5 -5q-1 -4 -1 -10
q1 -12 3 -13q2 0 4 6zM399 719q5 15 -7 27q-8 8 -8 1q0 -4 3 -16q4 -16 9 -16q2 0 3 4zM540 662q1 17 -11 35q-11 17 -10 5q0 -11 10 -34t11 -6zM421 544q6 15 -1 22q-4 4 -5 -6q-1 -4 -1 -9q1 -22 7 -7zM158 479q0 15 -12 32q-4 6 -6 8t-3.5 1t-2 -5t-0.5 -12q0 -26 12 -32
q5 -3 8.5 -0.5t3.5 8.5z" />
    <glyph glyph-name="T" unicode="T" horiz-adv-x="607" 
d="M423 1387q52 16 72 16t36 -16q18 -17 26 -60t-3 -60.5t-59 -32.5q-20 -7 -35.5 -17t-18.5 -18q-7 -18 16 -141q18 -95 60.5 -348t55.5 -338q9 -64 1.5 -71.5t-81.5 -11.5l-74 -4l-21 64q-21 63 -21.5 65.5t-34.5 19.5q-27 14 -35 31q-13 23 -35 168q0 4 -1 9
q-26 167 -60.5 340.5t-45.5 186.5q-12 15 -57 8q-37 -6 -48.5 7.5t-25.5 77.5q-6 27 -1.5 35t31.5 20q39 16 174 35t185 35zM152 1212q4 4 -5 5q-5 1 -10 1q-22 -1 -7 -7t22 1zM335 476.5q-7 11.5 -12 11.5t-5 -11.5t12 -11.5t5 11.5zM488 323q6 14 0 29q-3 9 -5 -4v-11
q0 -19 3 -18q1 0 2 4zM532 337q-7 12 -12 12t-5 -12t12 -12t5 12z" />
    <glyph glyph-name="U" unicode="U" horiz-adv-x="906" 
d="M597 128.5q0 11.5 5.5 11.5t12.5 -11.5t-5.5 -11.5t-12.5 11.5zM420 156q10 9 24 6.5t26 -16.5q9 -12 15 -11.5t16 13.5q13 15 14 15t-4 -16q-7 -21 -7 -35.5t-46 -16.5q-31 -1 -39 3t-8 23q0 27 9 35zM841 174.5q0 11.5 11.5 11.5t11.5 -11.5t-11.5 -11.5t-11.5 11.5z
M783 221q0 5 5 8.5t12 3.5t12.5 -3.5t5.5 -8.5t-5.5 -8.5t-12.5 -3.5t-12 3.5t-5 8.5zM858 662q7 12 12.5 12t5.5 -12t-12.5 -12t-5.5 12zM829 743.5q0 11.5 11.5 11.5t11.5 -11.5t-11.5 -11.5t-11.5 11.5zM55 1384q14 9 101 9q75 -1 68 -8q-1 -1 -4 -2q-12 -5 -15 -7
t0.5 -4t17.5 -7q10 -3 18.5 -11.5t8.5 -16.5q1 -16 9 8l2 8q10 33 4 -405v-13q-3 -276 -1 -368.5t11.5 -105.5t15 -14.5t12.5 7.5q15 19 27 211t12 414q0 73 1 134t3 96t5 34q8 -6 31 11q20 14 12 15q-2 1 -9 1q-8 0 -14 3.5t-6 8.5q0 11 110 11q70 0 90.5 -3.5t24.5 -16.5
q6 -20 9 -306q1 -54 2 -95t2 -73t2 -53.5t3 -35t4 -19t4 -4.5q6 2 13.5 -3.5t12.5 -15.5q8 -15 6.5 -21.5t-15 -14t-19 -5.5t-9.5 16q-3 14 -12.5 17t-38.5 -2q-41 -6 -63.5 -24t-19.5 -42q3 -17 21 -25.5t85 -21.5q18 -4 24.5 -9.5t3.5 -14.5q-3 -7 -1.5 -12t6 -5t7.5 -8.5
t3 -20.5t3.5 -20.5t8.5 -8.5t6.5 -8.5t-1.5 -20.5q-6 -26 -0.5 -27t41.5 17q41 21 50 8t-26 -42l-38 -31l45 -43l44 -42l-26 -17q-10 -7 -17.5 -16t-7.5 -15q0 -15 -35 -10q-29 5 -29 -6q-1 -11 25 -60q21 -41 12.5 -45.5t-38.5 31.5l-42 48l-43 -42l-42 -42l-3 37
q-4 34 -16.5 34t-44.5 -33q-31 -34 -63 -35q-18 -1 -18 14q0 14 31.5 46.5t26 37t-52.5 -3.5q-51 -10 -124.5 1.5t-117.5 35.5q-47 26 -75 78q-19 37 -22 71q-3 39 5 248q10 267 7 464q-2 111 0.5 156t11.5 50zM577 1341q5 29 -5 29t-10 -29t5 -29t10 29zM226 1269.5
q0 77.5 -11 77.5q-4 0 -4.5 -35t3 -72t8.5 -43q4 -5 4 72.5zM92 1317q16 16 10 17q-2 1 -9 1q-13 0 -23 -12t-2 -19q6 -6 24 13zM165 1309q4 26 -14.5 26t-15.5 -26q2 -10 6.5 -18t9 -8t9 8t5.5 18zM149 1097q-7 116 -18 134q-5 7 -6 -10q-3 -59 19 -182q5 -26 7 -25t-2 83z
M187 1112q6 14 0 29q-3 9 -5 -4v-11q0 -18 3 -18q1 0 2 4zM222 955q5 32 0 58q-2 14 -4 -4v-28q0 -38 2 -34q1 1 2 8zM234 787q5 37 0 75q-3 21 -4 -4q-1 -12 -1 -34q0 -48 3 -46q1 1 2 9zM570.5 834q5.5 15 -1.5 22q-4 4 -5 -5q-1 -5 -1 -10q2 -22 7.5 -7zM373 753
q6 15 -1 22q-4 3 -5 -6q-1 -4 -1 -10q1 -11 3 -12t4 6zM572 605q-5 15 -20 20q-7 3 -10 0t-1 -10q2 -6 8.5 -12t12.5 -8q7 -2 10 0.5t0 9.5zM516 580q0 4 -8 12t-18 13q-19 10 -20 9t16 -20q27 -30 29 -22q1 2 1 8zM129 467q-16 21 -24 21q-10 0 9 -30q10 -17 19 -23
q12 -7 11 3t-15 29zM237 451.5q0 12.5 -11 19.5q-26 16 8 -42q8 -14 19 -24t19 -9q16 0 -1 16q-3 2 -8 6q-26 21 -26 33.5z" />
    <glyph glyph-name="V" unicode="V" horiz-adv-x="698" 
d="M67 1339q67 8 119.5 6t61.5 -13q13 -15 36.5 -176t34.5 -306q12 -144 18 -150q3 -3 5 5q1 5 1 14q0 25 16 63q10 25 20.5 31.5t38.5 7.5q36 1 56 14.5t20 36.5q0 22 -30 40t-59 15q-21 -3 -26.5 1.5t-3.5 23.5q2 29 6.5 174t13.5 166q15 35 71.5 47.5t135.5 -0.5
q25 -4 34 -10.5t9 -18.5q0 -22 14 -14q17 10 5 -118q-11 -126 -36 -243q-30 -140 -47 -308t-40.5 -245t-23.5 -96q0 -25 -40 -33t-157 -5q-151 4 -157 10q-13 14 -26 113.5t-14 189.5q0 109 -10 184t-50 274q-33 166 -33 241v74zM88 1268q0 20 -11.5 27t-11.5 -3
q1 -10 12 -27q7 -11 9 -10.5t2 13.5zM134 1263q0 15 -3 26t-8 11q-7 0 -9.5 -6t0 -18t9.5 -28q8 -18 10 -8q1 6 1 23zM456 1239q6 15 0 29q-4 10 -5 -3q-1 -5 -1 -11q0 -19 3 -18q2 0 3 3zM192 1139q-1 28 -12 51q-7 16 -7 1q1 -7 3 -24q9 -55 14 -52q2 2 2 24zM156 1004
q-1 24 -16 64l-16 41l7 -52q7 -57 20 -69q4 -4 5 4q1 4 0 12zM378 587q0 7 -3.5 12t-8 5t-8 -5t-3.5 -12t3.5 -12.5t8 -5.5t8 5.5t3.5 12.5zM305 555q6 14 0 29q-4 9 -5 -4q-1 -4 -1 -11q0 -18 4 -18q1 0 2 4zM523 430q8 36 3 42q-3 2 -6 -6q-5 -9 -8 -24q-9 -36 -3 -42
q3 -2 6 5q5 9 8 25zM217 411q13 21 8 26q-9 8 -17 -10q-4 -9 -3 -19q0 -10 2 -11q2 0 10 14zM216 313.5q0 11.5 -5.5 11.5t-12.5 -11.5t5.5 -11.5t12.5 11.5z" />
    <glyph glyph-name="W" unicode="W" horiz-adv-x="1059" 
d="M30 1355.5q0 2.5 110 2.5h9q28 0 39.5 0.5t29 -2.5t22.5 -4.5t14 -11.5t10.5 -15.5t5.5 -26t4.5 -34.5t3.5 -47v-10q15 -209 27 -209q2 -1 4 3q10 17 39.5 135.5t29.5 140.5q0 26 24 32q10 3 15 9t3 13q-2 5 2 8t17 4.5t35 2.5t60 1h119l13 -44q13 -43 19 -154
q11 -174 29 -174q7 0 29 65q18 51 32.5 65.5t61.5 27.5q34 10 33 28t-37 36q-37 19 -41.5 28t6.5 42q18 53 38 66.5t70 6.5q68 -9 88 -19.5t15 -34.5q-4 -17 -2 -18q2 0 8 9q14 19 14 -13q1 -75 -46 -252q-42 -156 -61.5 -257.5t-32.5 -225.5q-11 -103 -29 -182.5t-32 -79.5
q-10 0 -3 -11q9 -14 -35 -19q-78 -8 -180 11q-57 11 -69 25t-23.5 97.5t-12.5 163.5q-2 87 -10 145l-8 58l-21 -92q-20 -88 -33.5 -112.5t-48.5 -39.5q-17 -7 -30.5 -18.5t-16.5 -21.5q-7 -22 6 -45t35 -30q25 -8 23 -38t-30 -57q-21 -22 -39.5 -25.5t-89.5 1.5q-38 2 -58 4
t-39 9.5t-25.5 15t-12.5 27.5t-7 41t-1 61q0 128 -23.5 494.5t-33.5 400.5q-12 41 -12 43.5zM181 1295q0 6 -3.5 11.5t-8 5.5t-5.5 -5.5t1 -11.5q7 -18 11.5 -18t4.5 18zM465 1257q4 12 7 22t3 15.5t-3 5.5q-8 0 -22 -33t-14 -51q0 -22 18 16q4 10 11 25zM611 1283
q-15 18 -48.5 17.5t-33.5 -18.5q0 -11 3.5 -12t11.5 6q13 10 39.5 5t26.5 -18q0 -5 2.5 -6.5t5.5 1.5q7 7 -7 25zM247 1210q6 21 0 35q-3 9 -5 -4q-1 -6 -1 -16q0 -20 3 -20q1 -1 3 5zM637 1219q-6 21 -11 22q-4 1 -4 -16q0 -16 10 -23q6 -3 6 6q0 4 -1 11zM560 1205
q6 15 -1 22q-4 4 -5 -5q-1 -4 -1 -10q1 -12 3 -12q2 -1 4 5zM607 1112q6 14 0 29q-4 9 -5 -4q-1 -4 -1 -11q0 -18 3 -18q1 0 3 4zM525.5 973q5.5 15 -1.5 22q-3 4 -5 -5q-1 -4 0 -10q1 -22 6.5 -7zM711 857q6 15 -1 22q-4 4 -5 -5q-1 -4 -1 -10q1 -12 3 -13q2 0 4 6z
M488 847.5q-7 11.5 -12 11.5t-5 -11.5t12 -11.5t5 11.5zM676 764q6 15 -1 22q-4 4 -5 -5q-1 -4 -1 -10q1 -12 3 -12q2 -1 4 5zM251 723q0 14 -12 32q-10 15 -11 -2q-1 -5 -1 -13q0 -13 3.5 -22.5t8.5 -9.5t8.5 4.5t3.5 10.5zM705 596q12 22 7 26q-9 9 -17 -10q-3 -9 -3 -18
q0 -11 2 -11q3 -1 11 13zM552 509q0 71 -10 77q-5 3 -5.5 -30.5t3 -70.5t8.5 -42q4 -5 4 66zM692 329q0 30 -12.5 37.5t-4.5 -24.5q17 -69 17 -13z" />
    <glyph glyph-name="X" unicode="X" horiz-adv-x="802" 
d="M154 1409q4 11 23 15t69 4q72 0 106.5 -13t53.5 -49q12 -22 11 -30t-19 -23q-26 -22 -26 -47t27 -35q12 -4 23.5 -13t15.5 -17q8 -14 24 22q8 18 21 55q12 35 20 55t20 36.5t22 24t29 11.5t38.5 3.5t52.5 -3.5q27 -3 43 -5t31 -7t21.5 -9.5t9.5 -16.5t1 -23.5t-10 -34
t-17.5 -44l-26.5 -58.5q-46 -98 -75.5 -179.5t-45.5 -104.5q-10 -16 -9 -30.5t16 -52.5q23 -60 16 -67t-49 -7q-41 0 -56 -14.5t-15 -55.5q0 -26 11.5 -45t27.5 -27.5t36 -5t35 20.5q22 23 32 21.5t25 -29.5q15 -30 36 -128.5t22 -146.5q1 -34 -5 -41.5t-40 -13.5
q-47 -9 -121 -2q-82 8 -112 38.5t-41 121.5q-12 93 -18 133l-6 40l-40 -74q-39 -74 -59 -127q-16 -44 -31 -61.5t-40 -22.5t-81 -1q-89 6 -99 15q-4 3 12.5 48t44.5 104q66 143 116 294q42 128 41 151q0 13 -13 35q-25 41 -57 214t-21 202zM217 1344q6 14 0 29q-4 9 -5 -4
q-1 -4 -1 -11q0 -18 4 -18q1 1 2 4zM325 1365.5q0 4.5 -17 4.5q-7 0 -12.5 -3.5t-5.5 -7.5t5.5 -5.5t12.5 0.5q17 7 17 11.5zM600 1339q17 17 12 19h-11q-16 0 -26 -12t-2 -20q3 -3 11 1t16 12zM411 1177q-7 18 -12 18q-2 0 -3 -3t-1 -8q0 -10 11 -17q7 -4 7 1q0 3 -2 9z
M569 1126q11 46 3 44q-5 -1 -15 -21q-14 -25 -5 -44q8 -17 15 10q1 5 2 11zM341 1109q-7 17 -11.5 17t-4.5 -17q0 -7 3.5 -12.5t7.5 -5.5t5.5 5.5t-0.5 12.5zM383 1045q0 12 -12 12t-5 -12t12 -12t5 12zM568 903q1 49 -5 49q-10 0 -13 -31.5t5 -46.5q10 -16 12 -1q1 8 1 30z
M545 824.5q0 11.5 -11 11.5t-18 -12q-3 -5 0.5 -8t10.5 -3q18 0 18 11.5zM232 641q0 16 -9 8q-6 -6 -10 -18q-8 -21 -12 -33q-2 -3 0 -3q2 1 13 14q18 23 18 32zM116 395q0 12 -5 12t-12 -12t5 -12t12 12z" />
    <glyph glyph-name="Y" unicode="Y" horiz-adv-x="678" 
d="M484 1393q36 9 59.5 4t49.5 -5q14 0 19.5 -4.5t4.5 -15.5q-2 -9 2 -15t12 -6q33 -1 4 -114q-34 -133 -111 -269q-26 -45 -38 -67.5t-25 -55.5t-17.5 -51.5t-9 -62t-6 -79.5t-2.5 -110q-6 -228 -13 -249q-5 -17 -43.5 -20t-130.5 7l-69 7v217q0 156 -4.5 202t-28.5 121
q-33 105 -66 188q-31 78 -38.5 133t10.5 70q22 18 36.5 52.5t14.5 67.5q0 27 6 34.5t32 11.5q49 8 75.5 -24t61.5 -144l42 -133l37 81q38 80 56 142q15 51 27 64t53 23zM181 1315q-7 19 -18 19q-9 -2 4 -23q17 -27 19 -16q1 5 -5 20zM234 343q0 12 -5 12t-12 -12
q-3 -5 -1.5 -8.5t6.5 -3.5q12 0 12 12zM322 343q-7 12 -12 12t-12 -12q-3 -5 0.5 -8.5t11.5 -3.5t11.5 3.5t0.5 8.5z" />
    <glyph glyph-name="Z" unicode="Z" horiz-adv-x="618" 
d="M70 1509q7 12 237 12q190 0 227 -9q36 -8 42 -36q2 -15 -2 -67q-6 -64 -32 -148t-62 -154q-29 -59 -43 -108q-7 -27 -18 -42.5t-30 -25.5q-40 -20 -48 -50.5t15 -75.5q18 -37 19 -53t-13 -63q-18 -65 -25 -83q-3 -6 -0.5 -9.5t13.5 -5.5t29.5 -2.5t53.5 -0.5q53 0 81 -3
t46 -14t23 -28t5 -49q0 -51 -18 -66t-79 -15q-58 0 -73 -27t-3 -113q11 -88 16 -155t10 -75.5t-5.5 -83t3.5 -91.5q12 -15 -2 -62.5t-33 -54.5q-25 -9 -30 20q-5 30 6 135q9 90 8 136.5t-15 133.5q-13 84 -20.5 108t-21.5 24q-21 0 -30 -14q-18 -28 -25 -145.5t3 -205.5
q4 -34 7 -327t14 -315t2 -40q-8 -17 -8 -25.5t7 -55.5q5 -35 2 -42.5t-22 -7.5h-28l-8 184q-8 183 -2 282.5t-5 221.5q-12 131 -14.5 270t6.5 149q14 14 9.5 51.5t-23.5 64.5q-24 34 -24 47t-63 13q-59 0 -79.5 17.5t-19.5 67.5q1 59 29 163t66 189q47 105 56 117
q12 15 43.5 109t44.5 153q17 76 23 96q4 15 -11 18q-13 3 -62 3q-79 0 -121 11q-29 8 -37 18t-14 44q-5 29 -2.5 42t15.5 22q20 14 11.5 14t-1.5 12zM466 1410q-9 42 -22 48q-6 -4 -7 -14q0 -24 18 -46q15 -19 15 -14q0 4 -4 26zM432 1269q7 20 1 25q-1 2 -3.5 0.5t-5 -5
t-3.5 -9.5q-7 -19 -2 -25q2 -2 4 -0.5t4.5 5.5t4.5 9zM221 494q-7 12 -12 12t-5 -11.5t12 -11.5q5 0 6.5 3t-1.5 8zM475 486q9 4 -4 6h-11q-19 0 -18 -3q0 -1 4 -3q14 -6 29 0z" />
    <glyph glyph-name="bracketleft" unicode="[" 
 />
    <glyph glyph-name="backslash" unicode="\" horiz-adv-x="130" 
 />
    <glyph glyph-name="bracketright" unicode="]" 
 />
    <glyph glyph-name="asciicircum" unicode="^" horiz-adv-x="130" 
 />
    <glyph glyph-name="underscore" unicode="_" horiz-adv-x="862" 
d="M60 385q23 9 368.5 6t355.5 -13q9 -10 -6 -15q-9 -3 -9 -9t8 -21q7 -13 10 -15.5t6.5 2t11.5 22.5l14 35l9 -50q8 -47 -1 -60q-15 -22 -112 -28q-56 -3 -260 -5q-342 -4 -371 4q-28 6 -43 38t-10 65t29 44zM108 290.5q-7 11.5 -18.5 11.5t-4.5 -11.5t18.5 -11.5t4.5 11.5
z" />
    <glyph glyph-name="grave" unicode="`" 
 />
    <glyph glyph-name="a" unicode="a" horiz-adv-x="776" 
d="M289 1512q27 7 136 6.5t120 -8.5q7 -4 20.5 -51.5t26.5 -110.5l32 -153l-45 -38q-32 -29 -48 -68t-9 -73q4 -18 37 -36.5t62 -18.5q19 0 25 -14q8 -17 23 -114q20 -129 48.5 -224.5t28.5 -146.5v-52l-120 9q-119 8 -127 16q-8 7 -26.5 99.5t-18.5 124.5q0 24 -8 29t-49 5
q-57 0 -64 -19t-7 -134q0 -96 -7 -111q-5 -9 -25 -19q-30 -14 -35.5 -48.5t8.5 -129.5q13 -91 16.5 -256.5t-7.5 -195.5q-4 -13 -12 -22.5t-15 -9.5q-20 0 -27.5 26.5t0.5 72.5q16 98 7 263.5t-33 193.5q-22 27 -43 4q-20 -23 -15 -67q3 -25 -14 -58q-9 -19 -10.5 -47.5
t3.5 -90.5q9 -104 16 -413t11 -406q3 -65 0.5 -80.5t-17.5 -15.5q-13 0 -18 8t-6 30q-1 38 -6 102q-10 129 -14 543t4 455q5 22 0 42t-24 54l-33 58l31 62q65 131 96 354q19 129 52.5 304t42.5 259q3 35 8.5 60t9.5 25q11 0 4 10q-2 4 2 9t13 7zM430 923q-1 44 -9 102l-9 58
l-8 -74q-8 -82 -6.5 -106t16.5 -24q17 0 16 44z" />
    <glyph glyph-name="b" unicode="b" horiz-adv-x="801" 
d="M234 1331q12 58 20 77t20 19q23 0 167.5 -29t169.5 -38q35 -14 48.5 -33.5t0.5 -39.5q-14 -22 -13 -34t18 -30q19 -18 57 -11q29 6 35 0t12 -47q8 -57 -11 -126.5t-56.5 -122.5t-78.5 -67q-30 -10 -31 -14q0 -3 9 -8q2 -1 7 -4q40 -22 56 -94.5t3 -168t-52 -179.5
q-37 -77 -103.5 -101.5t-196.5 -7.5q-71 9 -173.5 32t-110.5 32q-5 5 9 87.5t30 139.5l18 62l27 -30q23 -26 30.5 -29t27.5 5t19.5 46.5t-20.5 50.5q-20 11 -41 -1q-30 -15 -28 22q2 27 18 81q25 79 59.5 272t53.5 289zM493 1219q-16 10 -23 10q-8 0 -33 -135.5t-18 -141.5
q7 -7 18.5 -0.5t23.5 24t19 39.5q19 55 23.5 124.5t-10.5 79.5zM409 717q6 64 -11 78q-10 9 -19 -17t-30 -129l-38 -187q-5 -26 13 -26q60 0 85 281z" />
    <glyph glyph-name="c" unicode="c" horiz-adv-x="670" 
d="M603 1280q-8 8 3 7q12 0 23 -8q11 -9 11 -29t-13 -33q-14 -14 -28 5t-1 35q13 15 5 23zM390 1454q0 18 3 18q4 0 22 -25l23 -33l23 25q35 37 43 16q2 -4 2 -10q0 -7 3.5 -12.5t8.5 -5.5t8 -6.5t3 -15.5q0 -15 7 -17t32 5q39 12 41.5 9.5t-23.5 -23.5l-4 -4
q-23 -18 -26.5 -27t5.5 -24q14 -24 12 -167l-3 -144l-90 2h-42t-30.5 2.5t-23 3.5t-14 8.5t-10 11t-3.5 19t-2.5 24.5t0.5 34q0 53 -4 72.5t-15 23.5q-18 7 -11 23q6 18 -3 16q-13 -2 -25 -25l-2 -4q-13 -28 -0.5 -277t6.5 -359q-8 -143 19 -139q6 1 14 8q14 14 18 123
q0 8 1 25q1 31 1.5 44.5t3 33t3.5 25t7.5 15t10 10.5t16 4t21 2.5t28.5 -0.5h17q36 0 54 -0.5t36 -6.5t24 -13t12.5 -27.5t7.5 -41.5l3 -62q3 -106 -10 -157.5t-53 -86.5q-55 -48 -150.5 -63t-184.5 8.5t-128 76.5q-20 27 -32 103.5t-3 112.5q6 21 15 28.5t32 10.5
q33 3 54 29.5t12 53.5q-7 24 -34.5 41.5t-53.5 14.5l-28 -3l-3 242q-2 165 1 212t19 82q15 35 58.5 73t68.5 38q12 0 25.5 24.5t26.5 11.5t86 -13q52 0 63 4t11 23zM141 1052q6 15 -1 22q-4 4 -5 -5q-1 -5 -1 -10q1 -12 3 -13q2 0 4 6zM582 1486q7 11 12 11t5 -11.5
t-12 -11.5q-5 0 -6.5 3.5t1.5 8.5z" />
    <glyph glyph-name="d" unicode="d" horiz-adv-x="665" 
d="M68 1450q33 13 141 10.5t158 -16.5q107 -32 172 -132.5t80 -258.5q6 -62 -6 -88.5t-47 -26.5q-58 0 -58 -45q0 -30 20.5 -51t49.5 -21q28 0 39.5 -11t16.5 -46.5t0 -102.5q-7 -146 -52 -226t-135 -104q-50 -14 -215.5 -10t-180.5 20q-9 8 -13 109t-6 374q-1 203 -2 323.5
t4 186t12 88t22 28.5zM248 1273q6 14 0 29q-4 9 -5 -4q-1 -4 -1 -11q0 -18 3 -18q2 0 3 4zM333.5 1265.5q-0.5 7.5 -16.5 13.5q-5 2 -8 -12.5t-6 -61t-5 -120.5t-5 -202q-8 -403 -2.5 -408.5t28.5 6.5q25 13 32 61t-1 144q-9 106 -12.5 339t-4 240.5zM62 952q4 56 0 111
q-2 29 -4 -3v-52q0 -73 2 -69q1 2 2 13zM598 994q5 15 -2 22q-3 4 -5 -6q-1 -4 0 -9q0 -13 3 -13q1 -1 4 6zM201 591q6 20 0 35q-3 8 -5 -5q-1 -6 -1 -16q0 -20 3 -20q2 0 3 6zM586 609q6 15 -1 22q-4 4 -6 -5v-10q1 -12 3 -13q2 0 4 6zM574.5 539q5.5 15 -1.5 22
q-4 4 -5 -5q-1 -5 -1 -10q2 -22 7.5 -7zM566 503q0 27 -12 -2l-8 -22q-10 -28 -8 -28q1 1 11 14q17 22 17 38z" />
    <glyph glyph-name="e" unicode="e" horiz-adv-x="615" 
d="M52 1541l1 26h232q140 0 187 -3t51 -13q8 -21 -1.5 -71t-23.5 -61q-19 -15 -91 -15q-45 0 -65 5.5t-42 23.5q-31 26 -42.5 27.5t-32 -17.5t-21.5 -48t16.5 -51t44.5 -22q16 0 19 -12q3 -14 0 -90l-5 -102h105h106l3 -69q4 -68 -11 -78t-100 -10h-84v-56q0 -56 -13 -125
t-5 -128l7 -58l82 3q80 4 109.5 -5t57.5 -46q25 -33 31.5 -74.5t-10.5 -62.5q-11 -14 -1.5 -89.5t17 -157.5t11 -87.5t-7 -80t2 -90.5t-2.5 -68q-18 -63 -40 -61q-21 2 -22 59q0 26 5 58q11 69 11 159.5t-11 168.5q-12 83 -19.5 103t-27.5 20q-43 0 -44 -78
q-1 -38 -11.5 -59t-2.5 -125.5t12 -373.5q3 -251 5.5 -301.5t10.5 -74.5q4 -12 3.5 -23.5t-5.5 -15.5q-11 -11 -1 -60q12 -63 9 -82.5t-24 -19.5q-16 0 -19 5q-10 16 -14 205q-1 47 -4 286q-4 225 -11 407t-13 199q-5 13 11 35q17 24 15.5 48t-23.5 63l-24 43l-134 8
q-133 8 -149 14q-6 2 -13 17t-10 32q-5 32 -6 298t2.5 513.5t8.5 234.5q8 -16 9.5 -15.5t1.5 18.5zM84 1471.5q6 15.5 -1 22.5q-4 4 -5 -6q-1 -4 -1 -9q1 -23 7 -7.5zM401 1466q-14 13 -49 14q-14 -2 -14 -6q7 -12 38 -12q26 1 25 4zM142 1215q6 15 -1 22q-4 4 -5 -5
q-1 -4 -1 -10q1 -12 3 -13q2 0 4 6zM160 1160q-5 34 -9 34q-5 0 -5.5 -14.5t2.5 -30t7 -18.5q4 -2 5 4q2 9 0 25zM201 1098q6 14 0 29q-4 9 -5 -3q-1 -5 -1 -12q0 -18 3 -18q1 1 3 4zM235 964q5 20 0 41q-3 12 -4 -5q-1 -6 -1 -16q0 -27 3 -25q1 1 2 5zM125.5 757
q-6.5 186 -10.5 191t-4.5 -82t3 -179t8.5 -99q10 -17 3.5 169zM271 905q6 21 0 35q-4 9 -5 -4q-1 -6 -1 -16q0 -20 3 -20q1 0 3 5zM236 784q4 50 0 93q-3 22 -4 -4q-1 -16 -1 -46q0 -59 3 -56q1 1 2 13zM60 719q6 20 0 41q-3 12 -4 -5q-1 -6 -1 -16q0 -27 3 -25q1 1 2 5z
M233 529q-23 11 -40 11q-11 1 -11.5 -0.5t5.5 -6.5q2 -1 6 -4q17 -11 40 -11q18 1 18 2.5t-18 8.5zM213 486q18 3 -4 4q-10 1 -28 1q-42 0 -39 -3q0 -1 7 -2q32 -4 64 0z" />
    <glyph glyph-name="f" unicode="f" horiz-adv-x="546" 
d="M220 1433q9 6 27.5 11.5t35.5 5.5q34 0 81 -3.5t80.5 -9t31.5 -9.5q-5 -8 6 -25q5 -7 7 -8.5t3 1t1 11.5t3.5 13t8.5 1q11 -7 10.5 -60t-11.5 -75q-8 -14 -26 -18t-73 -4h-87v-45q0 -45 -8 -134l-7 -89h77h47t31 -4t20.5 -7.5t9.5 -16t5 -23.5v-37q0 -57 -9 -70
q-11 -15 -69 -22q-8 -1 -29 -3l-68 -7v-211q0 -249 -16 -256q-4 -2 -10 6q-9 12 -8 2l3 -12q2 -11 0 -20t-7 -10q-24 -8 -127 -8t-103 9q0 11 14.5 17t-4.5 7q-12 1 -17.5 19t-10.5 72q-7 69 5.5 439.5t23.5 425.5q5 30 13.5 35t46.5 3q52 -3 71 18q29 34 29 62q0 12 -9 12
q-13 0 3 13q2 2 5 4zM321 1384q9 4 -3 5q-5 1 -12 1q-18 0 -18 -3q1 -2 4 -3q14 -6 29 0zM93 1191q6 15 0 29q-4 10 -5 -3q-1 -5 -1 -11q0 -19 4 -18q1 0 2 3zM186 1203q6 16 -1 23q-4 3 -5 -6q-1 -4 -1 -10q1 -12 3 -12q2 -1 4 5zM209.5 1133.5q5.5 15.5 -1.5 22.5
q-3 3 -5 -6q-1 -4 0 -10q1 -22 6.5 -6.5zM344 883q9 3 -4 5q-6 1 -16 1q-20 0 -20 -3q-1 -2 5 -3q21 -6 35 0zM233 742q5 32 0 59q-3 14 -4 -4q-1 -10 -1 -29q0 -35 3 -34q1 0 2 8zM233 504q6 15 -1 22q-4 4 -6 -5v-10q1 -12 3 -13q2 0 4 6zM201 378q0 23 -4.5 23t-10.5 -23
q-2 -10 -0.5 -16.5t5.5 -6.5t7 6.5t3 16.5zM256 363q6 15 0 29q-3 10 -5 -3q-1 -5 -1 -11q0 -19 4 -18q1 0 2 3zM128 364q6 15 -1 22q-4 4 -6 -5v-10q1 -12 3 -13q2 0 4 6z" />
    <glyph glyph-name="g" unicode="g" horiz-adv-x="733" 
d="M197 1468q61 17 79.5 14.5t31.5 -28.5q9 -20 21.5 -27t43.5 -9q32 -2 42.5 2t17.5 23q11 29 23 36q14 9 49 -37t50 -92q19 -60 31 -150.5t2 -101.5q-11 -10 -113 -12l-103 -3l-15 85q-20 119 -53 119q-8 0 -9.5 -38.5t4.5 -104.5t18 -143q23 -151 25 -168q1 -9 5 3
q2 7 4 20l7 41l122 21q78 13 103 14t35 -10q11 -11 35.5 -146t25.5 -185q0 -11 -6.5 -20t-17.5 -13q-25 -8 -21.5 -23.5t31.5 -18.5q22 -3 27 -13.5t8 -56.5l3 -66l-59 -8q-38 -5 -52 -2.5t-24 15.5q-11 16 -17 15.5t-25 -17.5q-53 -48 -142 -73q-51 -14 -108 3t-95 55.5
t-39 81.5q0 39 -11.5 85.5t-40.5 309t-48 373t-6 142.5q11 30 58.5 61.5t102.5 46.5zM512 1308q6 16 -1 23q-4 3 -6 -6v-10q1 -12 3 -12q2 -1 4 5zM251 1292q7 16 3 18t-13 -11q-8 -13 -2 -19q2 -2 6 1.5t6 10.5zM406 718q-34 8 -44 24q-5 7 -5 -6q-2 -46 25 -144
q17 -59 34 -74q23 -18 32 25q8 37 0 95q-6 49 -12.5 61.5t-29.5 18.5zM271 355q-18 11 -30 11q-10 0 4 -10q1 -1 2 -1q18 -12 29 -12q10 0 -3 10zM419 359q3 4 -6 6h-10q-22 -1 -6.5 -7t22.5 1z" />
    <glyph glyph-name="h" unicode="h" horiz-adv-x="652" 
d="M62 1407q1 9 111 9q67 0 89.5 -4t27.5 -15q7 -19 7 -222q0 -121 3 -161.5t12 -40.5q14 0 28.5 116t14.5 224q0 52 4 72t15 24q20 8 115 6.5t107 -9.5q14 -9 18 -89q2 -55 -1 -68.5t-19 -16.5q-118 -20 -95 -111q5 -21 32.5 -38t56.5 -17q9 0 15 -4.5t10 -20t6 -38.5
t2.5 -67t-0.5 -97.5t-3 -137.5q-2 -86 -4 -142.5t-4 -101.5t-4.5 -70t-5.5 -40.5t-6.5 -19.5t-8.5 -1h-5q1 -2 12 -11q8 -7 11.5 -13.5t-0.5 -8.5q-9 -6 -126 -4l-116 3l-6 255q-4 167 -8 212.5t-17 47.5q-8 1 -12 -12q-7 -27 -13 -237q-7 -252 -22 -271q-10 -11 -33.5 -13
t-90.5 3q-108 8 -119 14q-9 6 -10 121.5t8 172.5q5 34 13.5 46.5t35.5 24.5q45 22 45.5 47t-44.5 47l-48 24v303q0 304 12 304q5 0 8 2t2 6q-1 9 0 18zM235 1284q6 15 0 30q-4 9 -5 -4q-1 -4 -1 -11q0 -19 3 -18q2 0 3 3zM398 1191q5 26 0 53q-3 14 -4 -3q-1 -9 -1 -24
q0 -34 3 -32q1 0 2 6zM386 1098q6 14 0 29q-3 9 -5 -3v-12q0 -18 3 -18q1 1 2 4zM153 1016q5 26 0 53q-2 15 -4 -3v-24q0 -33 2 -32q1 1 2 6zM358 871q8 3 -4 5q-6 1 -17 1q-20 0 -20 -3q0 -1 6 -3q20 -6 35 0zM433 707q6 21 0 35q-3 9 -5 -4q-1 -6 -1 -16q0 -20 3 -21
q1 0 3 6zM153 504q6 15 -1 22q-4 4 -5 -5q-1 -5 -1 -10q1 -22 7 -7zM162 371q-7 17 -13 17q-4 0 -4 -10.5t12 -17.5q6 -4 7 2q0 3 -2 9z" />
    <glyph glyph-name="i" unicode="i" horiz-adv-x="418" 
d="M232 1374q25 28 34 29q4 1 8 -8.5t8.5 -36.5t9.5 -69.5t12 -113.5q18 -173 29 -266.5t18.5 -192.5t23 -250t13.5 -153q-3 -4 -102.5 -16t-122.5 -12q-14 0 -22.5 8.5t-15.5 29.5q-10 30 -52.5 472t-42.5 516q0 60 16 58q6 -1 13 -12t77 -11q44 0 62 5t34 23zM201 795
q5 26 0 46q-3 11 -4 -3q-1 -8 -1 -23q1 -28 3 -27q1 0 2 7zM155 410q6 14 0 29q-4 9 -6 -3v-12q0 -18 3 -18q1 1 3 4z" />
    <glyph glyph-name="j" unicode="j" horiz-adv-x="724" 
d="M676 973q7 11 12.5 11t5.5 -11.5t-13 -11.5q-5 0 -6.5 3.5t1.5 8.5zM163 1474q7 12 11.5 12t11.5 -12q3 -5 0 -8.5t-11 -3.5t-11.5 3.5t-0.5 8.5zM245 1472q-5 21 -3 29t13 8q18 0 36 -62.5t42 -93.5q15 -20 22.5 -22.5t18.5 8.5q17 17 17 29q0 6 5 9.5t13 3.5
q19 0 12.5 16t0.5 23q8 8 22 -21q19 -39 20 -73q1 -33 8.5 -36t41.5 15q36 18 44.5 5.5t-23.5 -37.5l-34 -26l41 -6q40 -6 55 -36t15 -102q0 -42 3.5 -57t14.5 -15q7 0 12 -4t5 -9t-7 -7t-16 0q-13 3 -16 -8q-7 -23 0 -280v-6q5 -204 -1 -316t-26.5 -174.5t-61.5 -99.5
q-18 -16 -46 -19t-133 -1q-154 4 -190 15q-38 13 -67.5 47.5t-40.5 80.5q-18 77 -9.5 177t33.5 116q7 4 8.5 6t-1 3t-9.5 1q-11 0 -11 2t11 9q16 11 92.5 11.5t92.5 -10.5q17 -10 7.5 -24t4.5 -22q5 -3 11 -29.5t8 -59.5q7 -81 13 -109q4 -20 7.5 -21.5t17.5 13.5
q13 12 16.5 49.5t2.5 161.5l-1 191l41 3q25 2 38 11t26 31q21 37 11 66t-46 37q-33 7 -50.5 13.5t-57.5 7.5q-38 1 -52 21.5t10 38.5q15 11 22 11t20.5 -12t18 -12t8.5 12q8 21 7 66t-9 45t-33 -22t-30 -34q-4 -10 -30 -19q-24 -7 -33.5 9t6.5 36q14 16 4 21q-4 3 -1 3t8 -2
q17 -4 32.5 10.5t15.5 33.5t-5.5 20.5t-33.5 -9.5q-30 -11 -37 2q-3 5 -16.5 6.5t-27.5 -1.5q-25 -4 -25 -1l2 1q15 7 15 17.5t23 33.5t23 40t-23 21q-21 3 -22 16q0 11 20 8q20 -2 43 -5.5t25 7t16 18.5t-28 40t-42 43q0 19 26 6q16 -8 32 -25q32 -33 57 -27q13 3 13 19
q0 20 -22 67.5t-30 84.5zM402 924.5q0 11.5 -11.5 18.5t-11.5 -4.5t11.5 -18.5t11.5 4.5zM539 801q4 32 0 64q-3 18 -4 -4q-1 -11 -1 -28q0 -43 3 -40q1 1 2 8zM574 748q4 26 0 53q-3 14 -4 -3q-1 -9 -1 -24q0 -34 3 -32q1 0 2 6zM89 503q12 12 0 19t-20 -5
q-8 -14 0.5 -19.5t19.5 5.5zM216 485q0 20 -12 27.5t-11 -3.5q1 -10 11 -26q8 -12 10 -11.5t2 13.5zM113.5 453.5q5.5 29.5 -4.5 29.5t-10 -29.5t4.5 -29.5t10 29.5zM168 384q0 23 -11 46q-8 18 -9 18t-1 -18q0 -23 10 -46q8 -18 9.5 -18t1.5 18zM574 363q5 15 0 29
q-4 10 -6 -3v-11q0 -19 3 -18q1 0 3 3zM103 279q-7 35 -17 52q-6 10 -6 2q0 -6 3 -19q8 -35 18 -53q5 -10 5 -1q0 5 -3 19zM495 297q0 23 -5.5 23t-5.5 -19t-25 -56l-24 -36l30 32q12 14 21 30.5t9 25.5zM186 249.5q-21 23.5 -26.5 23.5t15.5 -23.5t26.5 -23.5t-15.5 23.5z
M260 167q-49 4 -70.5 12t-44.5 30q-29 27 -30 22q0 -2 6 -13q33 -63 149 -60l68 2zM507 162q27 29 20.5 29t-21.5 -18.5t-39 -28.5t-5.5 -10.5t45.5 28.5zM665.5 1544.5q6.5 11.5 17.5 5t4.5 -17.5t-17.5 -5t-4.5 17.5zM434 1543q-4 15 0.5 19.5t21.5 4.5q28 0 28 -17.5
t-4.5 -17.5t-21.5 -6.5t-24 17.5z" />
    <glyph glyph-name="k" unicode="k" horiz-adv-x="715" 
d="M141 1386q23 5 84 6q24 1 38 -0.5t27 -6.5t17.5 -15t9.5 -25.5t3.5 -38.5t-1.5 -54q-5 -101 2 -94q8 9 46 116q27 76 38 92.5t37 21.5q42 7 114 -4t81 -26q11 -17 -63 -255l-73 -238l47 -174q48 -174 97.5 -294t38.5 -131q-13 -13 -75 -18t-130 2l-88 8l-12 43
q-11 42 -30.5 132.5t-26.5 94.5q-2 1 -4 -16t-4 -48t-3 -67q-4 -135 -17.5 -144t-112 -9t-110.5 9t-16 90l-3 82l47 19q30 11 39 21t9 30q0 29 -19.5 51.5t-44.5 22.5q-31 0 -40 21q-14 31 -13 203v28q1 129 5 177t13 59q16 18 16 35t-16 39q-13 17 -16.5 78.5t6.5 97.5
q3 11 13.5 20.5t23.5 13.5q22 6 23 9q0 2 -15 8t-15 8q0 4 73 20zM270 1319q-7 28 -33 27h-26l26 -11q26 -10 27 -49q1 -24 4 -22q2 0 3 6q6 21 -1 49zM574 1303q2 32 -15 32q-7 0 -12.5 -3.5t-5.5 -8.5q0 -12 11 -6q5 3 9.5 -3t6.5 -17l4 -15q1 1 2 21zM90 1268
q2 12 2.5 22t0.5 16t-1 6q-7 0 -11 -20.5t-1 -39.5q3 -22 7 -2q1 7 3 18zM205 1295q0 6 -3.5 11.5t-8 5.5t-5.5 -5.5t1 -11.5q7 -18 11.5 -18t4.5 18zM170 1272q0 5 -11.5 5t-11.5 -12t11.5 -5t11.5 12zM425 1242q4 7 5.5 12t0.5 8t-4 3q-4 0 -9 -6.5t-8 -16.5l-2 -11.5
t-1 -8.5t1 -3q5 0 17 23zM558 1225q8 31 3 36q-3 3 -7 -6q-3 -7 -6 -19q-8 -31 -3 -36q3 -2 7 6q3 7 6 19zM411 703q0 23 -9 58q-6 22 -7 24l-2 -7v-12q0 -29 9 -58q5 -16 7 -18q2 8 2 13zM108 660q6 15 -1 22q-4 4 -5 -6q-1 -4 0 -9q0 -12 2 -13q2 0 4 6zM364 613
q6 15 -1 22q-4 4 -6 -5v-10q0 -12 3 -12q1 -1 4 5zM516 528q7 6 -8 21q-8 8 -9.5 7t2.5 -14q3 -8 7.5 -12.5t7.5 -1.5zM500 453q-7 29 -24 58l-17 29l8 -29q7 -29 24 -58l17 -29zM255 353q-7 64 -12 63q-3 -1 -3 -49q0 -17 -1 -27t-3 -16t-5 -6.5t-9 0.5q-7 2 -12 1t-5 -4.5
t8.5 -8.5t19.5 -7q21 -3 24 4t-2 50zM182 313.5q0 11.5 -5.5 11.5t-12.5 -11.5t5.5 -11.5t12.5 11.5z" />
    <glyph glyph-name="l" unicode="l" horiz-adv-x="542" 
d="M47 1397q1 8 116 8h115l7 -72q9 -80 -3.5 -331t-25.5 -263q-14 -13 -19 -2q-10 28 -20.5 36t-25.5 -1q-20 -12 -42 -56t-16 -60q8 -21 37.5 -16.5t50.5 29.5q19 22 25.5 23.5t17.5 -13.5q16 -21 23 -74.5t2 -110.5l-6 -63l96 2q38 1 59.5 -0.5t38 -5.5t23 -15t9.5 -25
t3 -39q0 -39 -5 -50.5t-27 -19.5q-32 -13 -233 -9q-121 3 -163 7t-49 15q-9 12 -3.5 510.5t15.5 595.5zM83 1373q0 9 -12 9q-5 0 -8.5 -8t-3.5 -19q0 -17 4 -17q2 0 8 9q12 17 12 26zM268 1364q0 18 -11.5 18t-11.5 -11.5t12 -17.5q5 -4 8 -0.5t3 11.5zM216 1347q3 4 -2 7.5
t-14.5 3.5t-16.5 -3.5t-7 -8t4.5 -8t11.5 -3.5q17 0 24 12zM152 1307q0 17 -24 -15q-11 -14 -10.5 -14.5t14.5 9.5q20 16 20 20zM213 1286q14 14 8 19.5t-14 -2.5t-8 -19q0 -12 14 2zM166 1217q15 52 2 56q-3 2 -8 -3q-8 -8 -7 -50l2 -42zM253 1083q6 20 0 35q-3 8 -5 -5
q-1 -6 -1 -16q0 -20 3 -20q2 0 3 6zM67 897q5 20 0 41q-3 12 -5 -5v-16q0 -26 3 -25q1 1 2 5zM207 915q6 15 -1 22q-4 4 -6 -5v-10q1 -22 7 -7zM120 822q14 14 8 19.5t-14 -2.5t-8 -19q0 -12 14 2zM242 811q5 15 -1 22q-4 3 -6 -6q-1 -4 0 -9q0 -12 3 -13q1 -1 4 6zM257 604
q0 17 -12 35q-7 11 -9 11t-2 -11q0 -18 11 -35q8 -11 10 -11t2 11zM172 567q6 15 -1 22q-4 4 -6 -5v-10q1 -12 3 -13q2 0 4 6zM207 531q5 27 -1 47q-2 10 -4 -3q-1 -9 0 -23q0 -29 3 -27q1 0 2 6zM109 453q-5 21 -10 22t-5 -16q0 -16 11 -23q5 -3 6 6q0 4 -2 11zM91 316
q4 1 0 14.5t-12 29.5l-22 41l7 -40q6 -33 11 -41.5t16 -3.5zM153 351q13 4 -12 22l-4 2q-11 7 -16.5 10t-9 3t-4.5 -2.5t-1 -8.5q0 -15 15.5 -23.5t31.5 -2.5zM448 383.5q-7 11.5 -12 11.5t-5 -11.5t12 -11.5t5 11.5zM379 359q-48 13 -99 12q-14 0 -10 -3q4 -4 74 -11
q57 -6 43 0q-3 1 -8 2zM213 317q9 4 -4 5q-6 1 -16 1q-20 0 -20 -3q0 -1 5 -3q21 -5 35 0zM451 318q3 4 -6 6q-4 1 -10 0q-22 -1 -6.5 -6.5t22.5 0.5z" />
    <glyph glyph-name="m" unicode="m" horiz-adv-x="940" 
d="M115 1393q10 16 119 10.5t120 -21.5q8 -14 18 -55t55 -247l39 -180l26 81q25 81 42 209q17 130 25 161.5t24 40.5q20 10 162 10l142 -1l12 -42q11 -39 11 -359.5t-11 -337.5q-11 -16 -49 -34q-15 -8 -27.5 -19.5t-14.5 -19.5q-4 -21 16 -43t48 -29q17 -4 21 -8.5t6 -25
t-4 -62.5q-2 -38 -8 -65t-11 -29q-13 -4 8 -20q14 -10 -3 -13q-17 -2 -89 -3h-112l-6 37q-6 38 -11 189q-6 180 -19 182q-7 0 -18 -40q-10 -38 -28 -126q-28 -141 -42 -187t-33 -58q-14 -10 -64.5 -9t-69.5 11q-24 13 -49 92t-44 205q-21 138 -27 140q-3 1 -5 -17
q-2 -11 -5 -36q-8 -76 -9 -206t-13 -160q-6 -16 -11.5 -20.5t-26.5 -7t-61 0.5l-89 4l-2 191q-3 192 -12.5 448t4.5 281l14 26l45 -26q28 -16 39.5 -18t23.5 8q24 20 18.5 65t-36.5 80q-14 16 -22.5 32t-5.5 21zM222 1363q4 4 -5 5q-4 1 -10 1q-22 -1 -7 -7t22 1zM864 1339
q0 54 -17 11q-7 -18 5 -31q11 -1 12 20zM772 1282q10 35 6.5 38.5t-8.5 -8.5q-10 -22 -9 -44q1 -14 8 4q1 5 3 10zM692 1270q12 21 7 25q-9 9 -17 -10q-3 -8 -3 -18q0 -11 2 -11q3 -1 11 14zM687 1170q5 15 -2 22q-3 4 -5 -5q-1 -4 0 -10q0 -12 2 -12q2 -1 5 5zM733 1152
q6 21 0 35q-3 8 -5 -4q-1 -6 -1 -16q0 -20 3 -20q1 -1 3 5zM398 1074q1 23 -9 46q-10 22 -10 7q-1 -16 9 -47q6 -17 8 -19q1 -1 2 6v7zM837 1065q6 15 0 29q-3 10 -5 -3v-11q0 -19 3 -18q1 0 2 3zM214 1028q13 15 10.5 16.5t-20.5 -10.5q-7 -4 -10.5 -9.5t-0.5 -7.5
q6 -7 21 11zM850 856q4 61 0 122q-2 32 -4 -1v-60q0 -81 2 -75q1 2 2 14zM153 972q6 15 0 29q-4 10 -6 -3v-11q0 -19 3 -18q1 0 3 3zM214 958q13 15 10.5 16.5t-20.5 -10.5q-7 -4 -10.5 -9.5t-0.5 -7.5q6 -6 21 11zM756 938q6 14 0 29q-4 9 -5 -4q-1 -4 -1 -11q0 -18 4 -18
q1 0 2 4zM559 938q6 15 -1 22q-4 4 -6 -5v-10q1 -12 3 -12q2 -1 4 5zM686 781q5 20 0 41q-3 12 -5 -5v-16q0 -27 3 -25q1 1 2 5zM350 752q6 14 0 29q-4 9 -5 -3q-1 -5 -1 -12q0 -18 4 -18q1 1 2 4zM745 711q5 21 0 35q-4 8 -5 -4q-1 -6 -1 -16q0 -20 3 -20q1 -1 3 5z
M164 671q5 26 0 52q-2 15 -4 -3v-23q0 -34 2 -32q1 0 2 6zM861 718q5 15 -2 22q-3 4 -5 -5q-1 -5 0 -10q0 -12 3 -13q1 0 4 6zM443 706q6 15 -1 22q-4 4 -6 -5v-10q1 -12 3 -13q1 0 4 6zM851 693q3 2 -2 3q-4 1 -11 1q-18 0 -34 -19q-11 -15 -8 -14q3 0 22 10q29 15 33 19z
M543 591q9 10 5 49q-2 27 -3 28l-6 -37q-4 -43 4 -40zM492 527q15 76 10 90q-1 4 -4 -5q-7 -18 -15 -65q-14 -89 -8 -89q4 0 17 69zM429 542q-11 87 -15 66q-2 -12 -2 -54q0 -27 3.5 -48t8.5 -24q7 -5 8 12q1 14 -3 48zM164 427q5 26 0 46q-3 11 -4 -3q-1 -8 -1 -23
q0 -28 3 -27q1 1 2 7zM385 433q6 20 0 35q-4 8 -5 -4q-1 -7 -1 -17q0 -20 3 -20q1 0 3 6zM853 464.5q0 11.5 -12 11.5t-12 -11.5t12 -11.5t12 11.5zM768 375q4 32 0 58q-3 14 -4 -4q-1 -10 -1 -28q0 -38 3 -34q1 1 2 8zM811 430q-7 12 -12 10.5t-5 -17.5q0 -7 3.5 -10
t8.5 -1q12 7 5 18zM736 383.5q0 46.5 -9 46.5t-4.5 -46.5t9 -46.5t4.5 46.5zM412 348.5q0 11.5 -12.5 11.5t-5.5 -11.5t12.5 -11.5t5.5 11.5z" />
    <glyph glyph-name="n" unicode="n" horiz-adv-x="763" 
d="M119 1386q9 5 60.5 5t118 -5t81.5 -11q12 -4 13 -9.5t-7 -14.5q-14 -17 0 -30q7 -8 10 -6t3 14q1 43 18 -17q14 -50 34 -152q31 -156 40 -164q8 -7 22 150q14 164 24 189q8 21 33 23h19q48 -1 94 -9q35 -6 41.5 -14.5t8.5 -51.5q6 -96 -30 -460t-55 -394
q-7 -11 -40 -27.5t-52 -65.5l-19 -48l-63 6q-64 5 -68 9q-7 7 -38 157t-51 269q-13 85 -19 79q-7 -6 -22.5 -158.5t-16.5 -213.5q0 -62 -6.5 -91t-21.5 -35q-14 -5 -107 1l-93 6l4 54l33 459t40.5 476t11.5 80zM642 1253.5q0 11.5 -12.5 11.5t-5.5 -11.5t12.5 -11.5
t5.5 11.5zM464 764q6 15 -1 22q-4 4 -6 -5v-10q1 -12 3 -12q2 -1 4 5zM186 729q5 14 0 29q-4 9 -6 -4v-11q0 -18 3 -18q1 0 3 4zM638 589q5 27 0 47q-3 10 -5 -3v-23q0 -29 3 -27q1 0 2 6zM603 589q6 15 0 29q-3 10 -5 -3v-11q0 -19 3 -18q1 0 2 3zM102 528q8 77 2 83
t-14 -71.5t-2 -83t14 71.5zM406 578q6 14 0 29q-4 9 -5 -4q-1 -4 -1 -11q0 -18 4 -18q1 1 2 4zM555 464.5q-7 11.5 -12.5 11.5t-5.5 -11.5t12.5 -11.5t5.5 11.5zM174 416q6 15 -1 22q-4 4 -6 -5v-10q1 -12 3 -13q2 0 4 6zM85 372q0 23 -3 23t-18 -23q-9 -15 -8.5 -19
t11.5 -4q7 0 12.5 6.5t5.5 16.5zM433 348.5q0 11.5 -5.5 11.5t-12.5 -11.5t5.5 -11.5t12.5 11.5z" />
    <glyph glyph-name="o" unicode="o" horiz-adv-x="619" 
d="M193 1318q71 20 143 14t134.5 -37.5t85.5 -77.5q14 -28 24 -227t9 -444q0 -118 -4.5 -158.5t-20.5 -75.5q-20 -46 -48 -68t-94 -46q-41 -15 -66 -16.5t-83 6.5q-170 24 -213 81q-16 21 -20 82t-8 321q-3 263 -0.5 328.5t19.5 111.5q30 85 20 80q-4 -1 -15 -25
q-16 -35 -17 -14q-1 50 43 97t111 68zM201 1265q17 11 5 11q-10 -1 -33.5 -11t-6 -10.5t34.5 10.5zM145 1181q14 15 7 21q-2 3 -6.5 -1.5t-7.5 -12.5q-4 -12 -3 -13.5t10 6.5zM370 1175q3 3 -1.5 7t-12.5 7q-13 5 -14 3.5t7 -9.5q15 -15 21 -8zM515 1145q0 11 -18 34
q-11 13 -13 15t-0.5 -1.5l8.5 -19.5q17 -35 21 -35q2 0 2 7zM259 1118q-1 -13 -2 -14q-2 0 -9 16q-11 24 -10 -75q1 -70 3 -71l6 30l6 58l9 -63q17 -133 -40 -135q-31 -1 -43.5 -11.5t-12.5 -34.5q0 -30 20 -36.5t36 17.5q16 25 27 25q4 0 8 -63.5t5 -153.5q2 -145 6 -182
t17 -39.5t21 6t15.5 37t13.5 75t13 127.5q35 401 -15 469q-27 36 -56 37q-17 0 -18 -19zM178 1033q0 56 -4.5 56t-8.5 -56q-4 -58 4.5 -58t8.5 58zM476 1019q6 16 -1 23q-4 3 -5 -6q-1 -4 -1 -10q1 -12 3 -12q2 -1 4 5zM58 984q6 15 0 29q-3 9 -5 -3v-11q0 -19 3 -18
q1 0 2 3zM476 949q6 15 0 29q-3 10 -5 -3q-1 -5 -1 -11q0 -19 4 -18q1 0 2 3zM442 775q4 61 0 122q-2 31 -3 -1q-1 -21 -1 -60q0 -81 2 -75q1 2 2 14zM236 905.5q0 11.5 -5 11.5t-12 -11.5t5 -11.5t12 11.5zM395 874q6 20 0 35q-3 8 -5 -4q-1 -7 -1 -17q0 -20 3 -20q1 0 3 6
zM476 723q6 20 0 35q-3 8 -5 -4q-1 -6 -1 -17q0 -20 3 -20q2 0 3 6zM235 659q1 96 -9 96t-4 -85q6 -101 10 -91q3 7 3 80zM105 718q6 15 -1 22q-4 4 -6 -5v-10q1 -12 3 -13q2 0 4 6zM166 667.5q0 16.5 -3.5 30.5t-9.5 17q-6 4 -7.5 3t1.5 -7q8 -12 -3 -16q-9 -3 -3.5 -35.5
t15.5 -32.5q4 0 7 12t3 28.5zM105 671q6 15 -1 22q-4 4 -6 -5v-10q1 -12 3 -12q2 -1 4 5zM198 660q6 15 -1 22q-4 4 -6 -6q-1 -4 0 -9q0 -12 3 -13q1 0 4 6zM383 589q5 27 0 47q-3 10 -4 -3q-1 -9 -1 -23q1 -29 3 -27q1 0 2 6zM569 502q5 32 0 64q-2 18 -4 -3q-1 -11 -1 -29
q0 -42 3 -39q1 1 2 7zM372 497q6 14 0 29q-4 9 -5 -4q-1 -4 -1 -11q0 -18 3 -18q2 0 3 4zM421 461q15 13 9 40q-2 15 -5 14q-1 0 -2 -6q-1 -19 -9 -40q-5 -15 -1 -14q2 0 8 6zM534 497q6 15 -1 22q-4 4 -5 -5q-1 -4 -1 -10q1 -12 3 -12q2 -1 4 5zM558 404q4 26 -1 46
q-3 11 -4 -3q-1 -8 -1 -23q1 -28 3 -27q1 1 3 7zM532 315q19 36 14 41q-2 3 -9 -9q-5 -8 -11 -21q-6 -15 -24 -33.5t-38 -30.5q-39 -25 -36 -29q19 0 55 28t49 54zM194 318q-6 18 -12 18q-2 0 -3 -3t-1 -8q0 -10 12 -17q6 -4 7 1q0 4 -3 9zM143 248q0 3 -38 31
q-27 20 -25 14q0 -2 4 -6q19 -24 49 -38q10 -5 10 -1z" />
    <glyph glyph-name="p" unicode="p" horiz-adv-x="637" 
d="M72 1283q-7 12 187 10q127 -1 170 -5.5t79 -20.5q33 -15 51 -31t29.5 -50.5t15 -82.5t3.5 -133q0 -142 -10.5 -202t-43.5 -104q-31 -41 -69 -56.5t-108 -15.5q-82 0 -81.5 -8.5t17.5 -37.5q15 -26 16.5 -58.5t-10.5 -40.5q-10 -6 -8.5 -47t19.5 -214q12 -122 5 -187
t4.5 -72.5t0.5 -50.5q-8 -27 -18 -45t-20 -23t-19 3q-13 13 0 138t6 195l-8 71l-62 -4q-55 -3 -56 -13q0 -2 1 -4q8 -13 12 -93t10 -327q11 -493 22 -589q4 -40 1 -47.5t-23 -7.5q-18 0 -22 11q-7 15 -13 131q-7 142 -8 159.5t-0.5 249.5t-8.5 319.5t-8 147.5
q1 44 -3.5 52.5t-30.5 11.5q-24 2 -30.5 11t-11.5 44q-6 36 -8 118t0 150.5t7 68.5q10 0 22 -13q16 -15 33 -4.5t17 34.5q0 28 -18 36t-39 -11q-22 -20 -30 -6.5t0.5 328.5t18.5 288q5 -11 10.5 -17t10.5 -3q9 5 8.5 18.5t-9.5 28.5zM417 1221q2 3 -2 7.5t-13 7.5
q-12 4 -13.5 2.5t7.5 -9.5q14 -15 21 -8zM528 1223q-25 31 -25 15q0 -5 21 -21q13 -10 13.5 -9t-9.5 15zM294 1214q0 5 -14.5 5.5t-30 -2.5t-17.5 -7q-2 -3 4 -5q8 -2 24 0q34 5 34 9zM470 1176q-16 20 -20 20q-16 0 15 -25q14 -10 15 -9.5t-10 14.5zM410 1109q0 7 -3 12
t-7.5 5t-6 -5t1.5 -12q6 -18 10.5 -18t4.5 18zM336 1090q-22 25 -29 25t-7 -174.5t7 -174.5t28 24q14 15 18 42.5t5 107.5q0 81 -4 108t-18 42zM445 1097q0 7 -3 12.5t-7.5 5.5t-6 -5.5t1.5 -12.5q6 -17 10.5 -17t4.5 17zM70 920q5 21 0 41q-3 12 -5 -4v-16q0 -27 3 -25
q1 0 2 4zM465 938q6 15 -1 22q-4 4 -6 -5v-10q1 -12 3 -12q2 -1 4 5zM59 839q6 20 0 35q-4 8 -5 -4q-1 -6 -1 -16q0 -20 3 -21q1 0 3 6zM511 845q6 14 0 29q-3 9 -5 -4v-11q0 -18 3 -18q1 0 2 4zM132 719q0 10 -18 24q-10 9 -13.5 8t-3.5 -11q0 -7 5 -14t12 -10t12.5 -1.5
t5.5 4.5zM85 696.5q0 11.5 -5 11.5t-12 -11.5t5 -11.5t12 11.5zM462.5 673.5q20.5 23.5 15 29t-21 -13t-39.5 -28.5q-18 -7 -18 -8.5t18 -1.5q25 -1 45.5 22.5zM85 502q0 15 -11 32q-10 15 -11 -2q-1 -4 -1 -12q0 -13 3.5 -22.5t8.5 -9.5t8 4t3 10zM79 336.5
q-1 92.5 -9 100.5q-7 0 -8 -92q0 -101 9 -101t8 92.5zM120 284q0 17 -11 24q-5 3 -8.5 -2t-3.5 -14.5t3.5 -17t8 -7.5t8 5t3.5 12zM268 253q4 26 -1 46q-3 11 -4 -3q-1 -8 -1 -23q1 -28 3 -27q1 1 3 7zM244 265q6 14 0 29q-3 9 -5 -4v-11q0 -19 3 -18q1 0 2 4z" />
    <glyph glyph-name="q" unicode="q" horiz-adv-x="667" 
d="M480.5 319.5q14.5 17.5 20.5 11.5t-3.5 -17.5t-19.5 -11.5q-12 0 2.5 17.5zM161 1343q29 29 46 34t84 2l90 -3v-35q0 -23 6.5 -29.5t31.5 -9t31.5 2t6.5 24.5q0 28 18 35t57 -6q129 -41 99 -336q-13 -121 -24.5 -135.5t-45.5 -21.5q-49 -11 -63.5 -53.5t16.5 -81.5
q15 -18 23 -20t24 7q23 15 40 15q19 0 24 -45t-6.5 -110.5t-34.5 -118.5q-22 -50 -46.5 -85.5t-34.5 -29.5t-26.5 -16t-9.5 -33q8 -14 52 -32l45 -19l-8 -60q-8 -61 -21 -70q-15 -10 -67 -2t-88 25q-34 16 -54 48.5t-20 71.5q0 15 -3.5 25t-8.5 10q-12 0 -6 -11q3 -5 -5 -6
q-5 0 -13 2q-14 4 -16 7.5t7 9.5q13 9 -2 5q-4 -1 -9 -2q-29 -8 -92.5 24.5t-92.5 71.5q-23 30 -30 75t-2.5 133.5t22.5 276.5q19 180 32 265t29 128.5t45 72.5zM511 1310q6 15 -1 22q-4 3 -5 -6q-1 -4 -1 -9q1 -12 3 -13t4 6zM400 1195q-12 21 -28.5 23t-23.5 -17t-7 -73
t-24 -198.5t-35 -294.5q-8 -100 -7 -128.5t14 -40.5q13 -13 18 -13t16 15q34 45 53 264q27 315 30.5 379.5t-6.5 83.5zM453 990q5 32 0 58q-2 14 -4 -4v-28q0 -38 2 -34q1 1 2 8zM221 961q5 26 0 52q-2 15 -4 -3v-23q0 -34 2 -32q1 0 2 6zM302.5 1008q5.5 15 -1.5 22
q-4 4 -5 -5q-1 -5 -1 -10q2 -22 7.5 -7zM556 942q19 19 15 33q-4 12 -17 -13q-1 -3 -3 -6q-11 -26 -9 -26t14 12zM291 938q6 14 0 29q-4 9 -5 -4q-1 -4 -1 -11q0 -18 3 -18q2 0 3 4zM105 915q6 15 -1 22q-4 4 -5 -5q-1 -4 -1 -10q1 -12 3 -13q2 0 4 6zM279 869q6 15 -1 22
q-4 3 -5 -6q-1 -4 -1 -9q1 -12 3 -13t4 6zM256 671q6 14 0 29q-4 9 -5 -4q-1 -4 -1 -11q0 -18 4 -18q1 0 2 4zM407 671q6 14 0 29q-4 9 -5 -4q-1 -4 -1 -11q0 -18 3 -18q2 0 3 4zM441 642q5 20 0 40q-3 13 -5 -4v-16q0 -27 3 -25q1 1 2 5zM517 657q0 11 -13 15
q-5 1 -8.5 -3.5t-3.5 -12.5t3.5 -12.5t8.5 -2.5q13 5 13 16zM558 636q6 14 0 29q-4 9 -6 -3v-12q0 -18 3 -18q1 1 3 4zM244 589q6 15 0 29q-3 10 -5 -3v-11q0 -19 3 -18q1 0 2 3zM209.5 567q5.5 15 -1.5 22q-3 4 -5 -5q-1 -5 0 -10q1 -22 6.5 -7zM131.5 426.5
q-0.5 9.5 -11.5 32.5q-5 12 -7 14.5t-2.5 -0.5t-1.5 -16q0 -26 11.5 -33t11 2.5zM95 400q7 7 -8 21q-8 9 -9.5 7.5t2.5 -13.5q3 -9 7.5 -13t7.5 -2zM395 311.5q6 15.5 -1 22.5q-4 3 -5 -6q-1 -4 -1 -10q1 -22 7 -6.5z" />
    <glyph glyph-name="r" unicode="r" horiz-adv-x="646" 
d="M91 1385q42 5 183 6q100 2 129.5 -2.5t73.5 -27.5q65 -34 92.5 -89t27.5 -152q0 -83 -20 -131.5t-64 -74.5l-40 -23l32 -23q32 -24 59.5 -82.5t32.5 -114.5q5 -61 12 -215l7 -154h-110q-86 0 -107 10q-31 15 -40 75q-5 36 -11 166q-5 108 -11.5 156t-16.5 64
q-26 40 -33 24q-11 -21 -4 -229q7 -195 -2 -233q-8 -35 -38 -42q-13 -2 -48 -2q-81 0 -134 20q-23 10 -12 16q10 9 0 10q-8 0 -11 29.5t-3 104.5v134l31 -3q38 -4 36 25q-1 27 -34 64l-38 43l2 234q3 234 10 323l7 89zM275 1205q6 14 0 29q-4 9 -5 -4q-1 -4 -1 -11
q0 -19 3 -18q2 0 3 4zM338 1199q-5 12 -12.5 22t-14.5 12q-4 2 -7 -2.5t-5 -19.5t-3 -39.5t-1 -64.5q0 -132 14 -132q15 0 27 44t12.5 93.5t-10.5 86.5zM565 1194q6 15 -1 22q-4 3 -6 -6v-9q1 -12 3 -13t4 6zM147 1066q6 15 -1 22q-4 4 -5 -5q-1 -5 -1 -10q1 -12 3 -13
q2 0 4 6zM464 846.5q0 11.5 -11.5 18.5t-11.5 -4.5t11.5 -18.5t11.5 4.5zM437.5 752.5q5.5 15.5 -1.5 22.5q-4 3 -5 -6q-1 -4 -1 -10q2 -22 7.5 -6.5z" />
    <glyph glyph-name="s" unicode="s" horiz-adv-x="628" 
d="M241 1393q52 11 121.5 4.5t115.5 -26.5q50 -22 75.5 -71.5t31.5 -136.5q6 -83 -8 -99q-8 -10 -7 -15t11 -9q37 -14 -3 -22q-32 -6 -99 -5l-107 3l-9 64q-11 80 -19.5 112t-19.5 36q-10 3 -19.5 -12.5t-13.5 -39.5t-1 -45q14 -73 159 -239q79 -90 111 -145
q24 -40 28.5 -68t4.5 -127q0 -93 -4.5 -123t-21.5 -58q-30 -48 -74.5 -64t-150.5 -16q-109 0 -161 13t-88 49q-47 47 -58 152t22 183q10 23 23 27.5t68 4.5q77 0 88.5 -14.5t19.5 -107.5q6 -73 21 -109t36 -28q21 7 32 46.5t8 86t-20 74.5q-22 35 -152 168.5t-141 153.5
q-15 28 -3 53.5t43 33.5q22 6 32.5 19t5 25t-25.5 15q-21 3 -41.5 33t-20.5 57q0 19 20 60q15 34 68 63.5t123 43.5zM411 684q4 15 -8 27q-8 8 -8 2q0 -5 3 -17q5 -16 9 -16q2 0 4 4zM239 685.5q0 11.5 -11.5 11.5t-11.5 -11.5t11.5 -11.5t11.5 11.5zM552 627q0 18 -11 35
q-8 11 -10 11t-2 -11q0 -17 12 -35q7 -11 9 -11t2 11zM176 630q2 2 -2 6.5t-13 7.5q-12 4 -13.5 3t7.5 -10q14 -14 21 -7zM468 520q5 16 -2 22q-3 4 -5 -5q-1 -4 0 -10q0 -12 2 -12q2 -1 5 5zM158 470q0 18 -12 18t-12 -11t12 -18q5 -3 8.5 0t3.5 11zM471 349q14 10 6 11
q-12 0 -29 -11q-14 -10 -6 -12q12 0 29 12z" />
    <glyph glyph-name="t" unicode="t" horiz-adv-x="599" 
d="M416 1387q52 16 72.5 15t40.5 -20q23 -24 23 -75q0 -36 -6 -45.5t-38 -19.5q-43 -15 -58 -27q-11 -9 -12 -21q-2 -33 56 -374q7 -38 36 -208q36 -208 38 -262l1 -54l-73 -5q-60 -5 -75.5 3.5t-24.5 50.5q-7 33 -30 65t-40 32t-30 47t-34 179q-23 144 -54 304.5t-41 187.5
q-6 18 -16 21t-45 -2l-52 -8l-12 45q-16 58 -10 77.5t42 29.5q43 12 169 30.5t173 33.5zM506 1300.5q0 11.5 -5.5 11.5t-12.5 -11.5t5.5 -11.5t12.5 11.5zM142 1212q4 4 -5 5q-4 1 -10 1q-22 -1 -7 -7t22 1zM564 330q0 8 -24.5 10.5t-28.5 -4.5q-4 -6 9 -9q6 -2 14 -2
q30 0 30 5z" />
    <glyph glyph-name="u" unicode="u" horiz-adv-x="893" 
d="M596 105q0 12 12 12t12 -12t-12 -12t-12 12zM415 122q6 16 27.5 17t36.5 -14q8 -9 13 -8t12 11q5 7 7 9t3 -1.5t0 -13.5q0 -30 -15 -55q-6 -10 -6 1q-1 14 -36 7q-28 -6 -40 7.5t-2 39.5zM846 151.5q-7 11.5 5 11.5t12 -11.5t-5 -11.5t-12 11.5zM789 213q7 7 17.5 1
t10.5 -17q0 -5 -5.5 -8t-12.5 -3q-13 0 -16.5 8.5t6.5 18.5zM828 720q0 5 5.5 8.5t12.5 3.5t12 -3.5t5 -8.5t-5 -8.5t-12 -3.5t-12.5 3.5t-5.5 8.5zM376 1370q16 10 103.5 10.5t102.5 -9.5q9 -5 8.5 -10t-10.5 -14q-18 -14 -18 -27q0 -10 12 5q2 2 3 4q8 11 12 -12
q6 -34 12 -244q8 -278 1 -297q-5 -12 -1.5 -14.5t17.5 0.5q22 6 31 -11.5t-6.5 -36t-25 -17t-9.5 22.5q0 14 -8 18.5t-30 4.5q-40 0 -65.5 -19.5t-22.5 -47.5q3 -20 13.5 -28t46.5 -15q47 -10 69 -39.5t24 -85.5q1 -38 8.5 -41t44.5 18q42 24 43 8q1 -13 -28 -43l-37 -39
l27 -14q26 -15 41 -40q10 -16 9 -23t-15 -17q-9 -7 -14 -15t-4 -13q2 -6 -7 -8q-9 -1 -25 1q-30 4 -33 -5t15 -51q23 -55 13 -56q-7 0 -36 30l-42 43l-40 -41q-33 -34 -37 -32q-3 2 -3 20q0 30 -9 36q-14 8 -36.5 -2.5t-30.5 -29.5q-10 -23 -44 -29q-29 -4 -31 14
q0 18 13 25.5t-3 18.5q-9 6 -9 8t11 1q24 -3 34.5 1t16.5 18q5 14 -8 14q-9 1 -35 -4q-75 -14 -157.5 3.5t-128.5 55.5q-34 29 -48 61.5t-19 99.5t3 179q10 205 11 446q0 152 3.5 199t14.5 54q17 11 104 9q67 -1 67 -3q0 -1 -38 -7l-58 -8l53 -2q48 -1 60 -11
q21 -18 23 -113q1 -48 -2 -224q-10 -469 0 -538q5 -38 18 -39q6 0 16 6q35 22 36 581q0 277 11 303q4 9 12 4q11 -6 11 6t20 12.5t-9 12.5q-17 7 -19.5 11.5t8.5 10.5zM225 1297q0 11 -3.5 19t-8.5 8q-7 0 -9 -4.5t0.5 -12t9.5 -18.5q9 -15 10 -4q1 4 1 12zM109 1307.5
q0 4.5 -17 4.5q-8 0 -13 -5.5t-5 -13.5q0 -11 3.5 -12t14.5 8q17 14 17 18.5zM167 1282q0 30 -18 30t-14 -26q4 -28 18 -30q13 1 14 26zM154 1086q0 34 -10 81l-10 46v-58q-1 -58 10 -81q8 -19 9 -10q1 5 1 22zM233 891q5 26 0 52q-3 15 -4 -2q-1 -9 -1 -24q0 -33 3 -32
q1 0 2 6zM568 591q-8 13 -20 13t2 -17q16 -19 22 -11q3 4 -4 15zM515 569q0 4 -5 8.5t-12 7t-12.5 1.5t-5.5 -5t5.5 -8.5t12.5 -7t12 -1.5t5 5zM465 486q6 15 -1 22q-4 4 -5 -6q-1 -4 -1 -9q1 -12 3 -13t4 6zM148 407q6 6 -16 35q-22 26 -23 16q0 -8 8 -22t18 -23.5t13 -5.5
zM237 436q0 16 -12 23q-14 9 -10 -5q3 -14 21 -44q10 -15 23 -26.5t21 -11.5q17 1 1 15l-13 10q-13 10 -22 21.5t-9 17.5z" />
    <glyph glyph-name="v" unicode="v" horiz-adv-x="697" 
d="M63 1313q29 8 107 9q53 1 67.5 -3t21.5 -22q11 -29 35 -209.5t31 -286.5l8 -122l20 58q14 42 23 51t42 11q41 4 57.5 16.5t16.5 39.5q0 24 -15 34.5t-60 16.5q-25 4 -35 9.5t-7 14.5q5 16 8 160q3 119 14.5 162.5t43.5 58.5q39 17 139 10q75 -7 69 -22q-6 -9 6 -16
q17 -11 9 -125.5t-38 -274.5q-40 -215 -52 -343q-5 -54 -16.5 -116t-23.5 -96l-12.5 -42.5t-7.5 -30.5t0 -11q4 -1 -4 -5l-12 -5q-23 -10 -182 -4l-158 6l-19 100q-18 100 -18 233q0 102 -12 191t-53 284q-29 143 -26 202q3 39 8.5 50.5t24.5 16.5zM86 1260q0 7 -3.5 12
t-8 5t-5.5 -5t1 -12q7 -18 11.5 -18t4.5 18zM132 1248q0 29 -9.5 29t-4.5 -29t9.5 -29t4.5 29zM454 1210q6 21 0 35q-4 9 -5 -4q-1 -6 -1 -16q0 -20 3 -20q1 -1 3 5zM194 1146q-13 34 -15 -5v-11q0 -22 4 -23q2 0 6 6q11 17 5 33zM154 993q0 23 -10 46q-8 18 -9.5 18
t-1.5 -18q0 -23 11 -46q8 -18 9 -18t1 18zM376 563q0 18 -4.5 18t-11.5 -18q-2 -7 -0.5 -12t5.5 -5t7.5 5t3.5 12zM318 546q0 12 -12 12t-5 -12t12 -12t5 12zM523 410q6 20 0 34q-3 9 -5 -4v-16q0 -20 2 -20t3 6zM222 393q5 15 -1 22q-4 4 -6 -5q-1 -5 0 -10q0 -12 3 -13
q1 0 4 6zM225 290.5q0 11.5 -11.5 11.5t-11.5 -11.5t11.5 -11.5t11.5 11.5z" />
    <glyph glyph-name="w" unicode="w" horiz-adv-x="1069" 
d="M34 1335q-8 15 3 18q12 4 103 4h16q28 0 39.5 0.5t28 -3t22 -5t14 -13t10 -18t5.5 -29.5t5 -39t3 -54q1 -15 2 -23q11 -169 22 -169q9 -1 35 97q31 122 41 169q3 19 10 33t13 15q24 2 25 6q0 3 -11 10q-8 5 -9.5 7.5t1.5 3.5t14 2q66 2 146 -2.5t87 -11.5q10 -11 -4 -11
t-14 -11t17 -5q30 12 30 -146q1 -86 22 -157q8 -24 13 -23q2 0 4 4l28 76q22 58 45 62q47 7 61 14t14 24q0 24 -42 41q-29 12 -34 20.5t1 34.5q13 63 39 78t100 1t96 -30q6 -4 -2 -5q-2 -1 -4 -1q-6 0 -10 -6t-4 -14q0 -13 2 -14t9 11q14 20 13 -13q-1 -73 -48 -244
q-43 -160 -63 -261t-36 -246q-14 -121 -27 -175.5t-34 -71.5q-10 -8 -9 -11.5t14 -7.5q11 -2 -14 -4q-87 -7 -197 0q-20 1 -29 3q-17 3 -27 7.5t-19 17t-14 28t-10 47t-8.5 68.5t-7.5 98q-13 205 -20.5 205t-22.5 -79q-13 -76 -28.5 -106t-47.5 -40q-49 -16 -53.5 -50
t38.5 -67q24 -19 28 -29t-4 -32q-13 -39 -46.5 -50.5t-114.5 -5.5q-46 3 -70.5 8t-40 16.5t-19.5 28.5t-4 49q0 68 -18.5 399t-28.5 434q-11 120 -24 143zM187 1290q0 20 -12 27t-11 -4q1 -9 11 -26q8 -11 10 -10.5t2 13.5zM466 1247q16 42 7 44q-6 2 -18 -26
q-15 -37 -8 -44q2 -2 5 1t7 9.5t7 15.5zM613 1286q-10 16 -43.5 13.5t-33.5 -19.5q0 -10 3.5 -11.5t12.5 5.5q15 12 42 5q21 -5 21 1q0 2 -2 6zM638 1203q6 16 -1 23q-4 3 -6 -6v-10q1 -12 3 -12q2 -1 4 5zM533 970q6 15 -1 22q-4 4 -6 -5v-10q1 -22 7 -7zM719.5 853.5
q5.5 15.5 -1.5 22.5q-4 4 -5 -6q-1 -4 0 -9q1 -23 6.5 -7.5zM486 830q6 14 0 29q-3 9 -5 -4q-1 -4 -1 -11q0 -18 4 -18q1 0 2 4zM684.5 760q5.5 15 -1.5 22q-3 4 -5 -5q-1 -4 0 -10q1 -22 6.5 -7zM241 707q5 21 0 41q-3 12 -5 -4v-16q0 -27 3 -25q1 0 2 4zM708 585
q6 14 0 29q-4 9 -5 -4q-1 -4 -1 -11q0 -18 3 -18q2 0 3 4zM545 538q4 26 -1 47q-3 10 -4 -4q-1 -8 -1 -22q1 -29 3 -28t3 7zM700 316q0 21 -12 39q-10 14 -11 -2q-1 -4 -1 -12q0 -32 12 -39q5 -3 8.5 1t3.5 13zM720 266q3 4 -6 5q-4 1 -10 1q-22 -1 -6.5 -7t22.5 1z" />
    <glyph glyph-name="x" unicode="x" horiz-adv-x="801" 
d="M149 1417q6 10 96 10q51 0 78.5 -5t48.5 -17q35 -22 40 -49.5t-21 -50.5q-16 -13 -20 -31.5t4 -31.5t25 -13q9 0 18.5 -6t14.5 -14q8 -13 12.5 -14t11.5 11q12 17 19 46q13 52 37 97t42 51q24 7 93.5 4.5t95.5 -12.5q30 -12 26 -50.5t-46 -124.5q-48 -99 -82 -191
q-25 -68 -40 -95.5t-28 -27.5q-10 0 -4 23t-1 23q-7 -1 -17 -21q-11 -20 6 -49q9 -16 11 -15q2 0 0 6q-7 23 0 22q13 -2 30 -41q1 -3 3 -7q21 -54 16.5 -67.5t-43.5 -13.5q-26 0 -40.5 -6t-24.5 -20q-18 -27 -16.5 -47.5t23.5 -48.5q21 -27 49.5 -29t41.5 22q37 70 79 -77
q21 -76 46 -214l7 -40l-39 27q-25 17 -26 16q-1 0 12 -12q27 -24 27 -31t-107 -7q-88 0 -128.5 15t-55.5 54q-11 30 -24 146t-17 120q-1 1 -25.5 -48.5l-54 -112.5t-42.5 -96q-9 -21 -21 -26q-14 -5 -97 -5q-106 0 -112 15q-2 6 14 48t41 95q60 128 114 291l54 163l-26 53
q-20 40 -54 217t-24 192zM220 1337q5 20 0 41q-3 12 -5 -5v-16q0 -27 3 -25q1 1 2 5zM329 1364.5q0 4.5 -18 4.5q-7 0 -12 -3.5t-5 -8t5 -5.5t12 1q18 7 18 11.5zM632 1360q11 4 10.5 5.5t-12.5 2.5q-19 1 -46 -22q-23 -20 -14 -23q14 -1 29 15t33 22zM415 1175
q-3 8 -8 13.5t-9 5.5q-21 0 7 -24q11 -9 13 -8t-3 13zM569.5 1104q6.5 6 2.5 34l-4 27l-15 -26q-14 -25 -2 -33t18.5 -2zM337 1098q6 16 -1 23q-4 3 -6 -6v-10q1 -12 3 -12q2 -1 4 5zM387 1042q0 11 -12 18q-5 3 -8 0t-3 -11q0 -18 11.5 -18t11.5 11zM550 820q0 11 -10 17
t-18 -1q-10 -10 -6.5 -18.5t17.5 -8.5q7 0 12 3.5t5 7.5zM224 619q14 35 7.5 33t-23.5 -36q-15 -35 -7 -34q12 8 23 37zM119 389.5q0 11.5 -11.5 11.5t-11.5 -11.5t11.5 -11.5t11.5 11.5z" />
    <glyph glyph-name="y" unicode="y" horiz-adv-x="676" 
d="M452 1343q23 11 82 12t83 -10q17 -7 16.5 -8.5t-14.5 -1.5q-13 -1 -14 -4t9 -13q15 -17 24 -3q3 6 6 -6q2 -11 2 -30q0 -57 -35.5 -159.5t-88.5 -195.5q-31 -54 -45.5 -85t-27.5 -64t-17 -76t-6.5 -89t-4.5 -134q-3 -226 -14 -236t-132 -5l-120 5l10 72q9 72 6 223
q-2 120 -21 201t-91 277q-51 138 -11 171q21 17 35.5 56.5t8.5 60.5q-8 22 6.5 33.5t49.5 11.5q44 0 63 -20.5t39 -88.5q24 -84 44 -139l19 -56l37 82q37 81 56 144t46 75zM180 1275q-13 24 -25 24q-10 0 7 -25l3 -3q24 -32 25 -22q1 6 -10 26zM410 958q5 15 0 29
q-4 9 -6 -3v-11q0 -19 3 -19q1 1 3 4zM359 627q6 17 2 19t-12 -12q-8 -12 -2 -18q2 -3 5.5 0.5t6.5 10.5zM242 302q-2 7 -7 12.5t-8.5 5.5t-8.5 -5.5t-7 -12.5q-7 -17 15.5 -17t15.5 17zM319 286q11 4 2 20t-18 2q-8 -12 -3 -19t19 -3zM361 296q-7 12 -12.5 12t-5.5 -11.5
t12 -11.5q6 0 7.5 3t-1.5 8z" />
    <glyph glyph-name="z" unicode="z" horiz-adv-x="620" 
d="M83 1532q28 13 243.5 8.5t231.5 -18.5q30 -25 9.5 -137t-77.5 -234q-42 -91 -59 -146q-10 -31 -18.5 -43.5t-20.5 -12.5q-20 0 -39.5 -25t-19.5 -51q0 -24 17 -46q15 -19 17.5 -56.5t-9.5 -68.5q-10 -27 -17 -59q-6 -24 1 -28t53 -5q67 0 121.5 -10.5t63.5 -24.5
q10 -16 10 -71q0 -40 -6 -49t-38 -18q-44 -13 -80 -13q-15 0 -30 -4.5t-20 -11.5q-10 -12 -8.5 -52t18.5 -217q12 -128 5 -188.5t5 -67.5q11 -6 0 -49.5t-28 -60.5q-35 -37 -36 34q0 27 4 68q13 145 0 294t-40 160q-19 7 -34 -17t-15 -59q0 -40 -19 -68t-9 -43
q9 -14 13.5 -92t9.5 -319q12 -506 21 -569q3 -21 -1 -26.5t-21 -5.5t-22 13q-5 15 -10 107q-13 230 -18 606.5t4 432.5q4 26 1 42t-16 33q-22 31 -30 52q-4 12 -19.5 16t-57.5 4q-39 0 -55.5 4t-20.5 15q-10 26 -5.5 86.5t22.5 129.5q16 62 63 179t65 140q12 16 43.5 110
t43.5 152q16 76 24 97q5 13 -2.5 16t-40.5 1q-151 -7 -185 26q-23 23 -24 63t21 52q17 11 9 14q-10 1 8 10q2 1 4 1zM97 1448q5 14 0 29q-4 9 -6 -4v-11q0 -18 3 -18q1 0 3 4zM469 1399q7 20 -15 61q-14 27 -20 17q-4 -5 -0.5 -20.5t11.5 -31.5q17 -28 24 -26zM545 1378
q14 14 8.5 20t-14 -2.5t-8.5 -19.5q0 -12 14 2zM353 1354q6 15 0 30q-4 9 -5 -4q-1 -4 -1 -11q0 -19 4 -18q1 0 2 3zM432 1287q9 26 3 32q-4 4 -11 -10q-2 -5 -3 -10q-8 -26 -3 -31q4 -4 11 10q2 4 3 9zM306 1244q6 20 0 35q-3 8 -5 -5v-16q0 -20 2 -20t3 6zM517 498
q16 2 -3 4q-12 1 -35 1q-44 0 -42 -3q1 -1 10 -2q38 -5 70 0z" />
    <glyph glyph-name="braceleft" unicode="{" 
 />
    <glyph glyph-name="bar" unicode="|" horiz-adv-x="130" 
 />
    <glyph glyph-name="braceright" unicode="}" 
 />
    <glyph glyph-name="asciitilde" unicode="~" 
 />
    <glyph glyph-name="uni00A0" unicode="&#xa0;" horiz-adv-x="500" 
 />
    <glyph glyph-name="exclamdown" unicode="&#xa1;" 
 />
    <glyph glyph-name="cent" unicode="&#xa2;" 
 />
    <glyph glyph-name="sterling" unicode="&#xa3;" 
 />
    <glyph glyph-name="guillemotleft" unicode="&#xab;" 
 />
    <glyph glyph-name="plusminus" unicode="&#xb1;" 
 />
    <glyph glyph-name="acute" unicode="&#xb4;" 
 />
    <glyph glyph-name="guillemotright" unicode="&#xbb;" 
 />
    <glyph glyph-name="questiondown" unicode="&#xbf;" 
 />
    <glyph glyph-name="Aacute" unicode="&#xc1;" 
 />
    <glyph glyph-name="Adieresis" unicode="&#xc4;" 
 />
    <glyph glyph-name="Aring" unicode="&#xc5;" 
 />
    <glyph glyph-name="AE" unicode="&#xc6;" 
 />
    <glyph glyph-name="Eacute" unicode="&#xc9;" 
 />
    <glyph glyph-name="Iacute" unicode="&#xcd;" 
 />
    <glyph glyph-name="Ntilde" unicode="&#xd1;" 
 />
    <glyph glyph-name="Oacute" unicode="&#xd3;" 
 />
    <glyph glyph-name="Odieresis" unicode="&#xd6;" 
 />
    <glyph glyph-name="Oslash" unicode="&#xd8;" 
 />
    <glyph glyph-name="Uacute" unicode="&#xda;" 
 />
    <glyph glyph-name="Udieresis" unicode="&#xdc;" 
 />
    <glyph glyph-name="germandbls" unicode="&#xdf;" 
 />
    <glyph glyph-name="aacute" unicode="&#xe1;" 
 />
    <glyph glyph-name="adieresis" unicode="&#xe4;" 
 />
    <glyph glyph-name="aring" unicode="&#xe5;" 
 />
    <glyph glyph-name="ae" unicode="&#xe6;" 
 />
    <glyph glyph-name="eacute" unicode="&#xe9;" 
 />
    <glyph glyph-name="iacute" unicode="&#xed;" 
 />
    <glyph glyph-name="ntilde" unicode="&#xf1;" 
 />
    <glyph glyph-name="oacute" unicode="&#xf3;" 
 />
    <glyph glyph-name="odieresis" unicode="&#xf6;" 
 />
    <glyph glyph-name="oslash" unicode="&#xf8;" 
 />
    <glyph glyph-name="uacute" unicode="&#xfa;" 
 />
    <glyph glyph-name="udieresis" unicode="&#xfc;" 
 />
    <glyph glyph-name="quoteright" unicode="&#x2019;" horiz-adv-x="130" 
 />
    <glyph glyph-name="quotedblleft" unicode="&#x201c;" horiz-adv-x="130" 
 />
    <glyph glyph-name="Euro" unicode="&#x20ac;" 
 />
  </font>
</defs>
</svg>
